<?xml version="1.0" encoding="utf-8"?>
<svg version="1.1" xmlns:xlink="http://www.w3.org/1999/xlink" width="20px" height="20px" viewBox="437 349  20 20" xmlns="http://www.w3.org/2000/svg">
  <path d="M 437.5 354  A 4.5 4.5 0 0 1 442 349.5 L 452 349.5  A 4.5 4.5 0 0 1 456.5 354 L 456.5 364  A 4.5 4.5 0 0 1 452 368.5 L 442 368.5  A 4.5 4.5 0 0 1 437.5 364 L 437.5 354  Z " fill-rule="nonzero" fill="#f0f0f0" stroke="none" />
  <path d="M 437.5 354  A 4.5 4.5 0 0 1 442 349.5 L 452 349.5  A 4.5 4.5 0 0 1 456.5 354 L 456.5 364  A 4.5 4.5 0 0 1 452 368.5 L 442 368.5  A 4.5 4.5 0 0 1 437.5 364 L 437.5 354  Z " stroke-width="1" stroke="#aaaaaa" fill="none" />
  <path d="M 441.285714285714 359  L 445.571428571429 363.285714285714  L 452.714285714286 353.285714285714  " stroke-width="4.28571428571429" stroke="#aaaaaa" fill="none" />
</svg>