<?xml version="1.0" encoding="utf-8"?>
<svg version="1.1" xmlns:xlink="http://www.w3.org/1999/xlink" width="10px" height="10px" xmlns="http://www.w3.org/2000/svg">
  <g transform="matrix(1 0 0 1 -167 -425 )">
    <path d="M 7.35677083333333 6.77083333333333  C 7.43923611111111 6.68836805555556  7.48046875 6.58854166666667  7.48046875 6.47135416666667  C 7.48046875 6.35850694444444  7.43923611111111 6.26085069444444  7.35677083333333 6.17838541666667  L 6.17838541666667 5  L 7.35677083333333 3.82161458333333  C 7.43923611111111 3.73914930555555  7.48046875 3.64149305555555  7.48046875 3.52864583333333  C 7.48046875 3.41145833333333  7.43923611111111 3.31163194444444  7.35677083333333 3.22916666666667  L 6.77083333333333 2.64322916666667  C 6.68836805555556 2.56076388888889  6.58854166666667 2.51953125  6.47135416666667 2.51953125  C 6.35850694444445 2.51953125  6.26085069444445 2.56076388888889  6.17838541666667 2.64322916666667  L 5 3.82161458333333  L 3.82161458333333 2.64322916666667  C 3.73914930555556 2.56076388888889  3.64149305555556 2.51953125  3.52864583333333 2.51953125  C 3.41145833333333 2.51953125  3.31163194444444 2.56076388888889  3.22916666666667 2.64322916666667  L 2.64322916666667 3.22916666666667  C 2.56076388888889 3.31163194444444  2.51953125 3.41145833333333  2.51953125 3.52864583333333  C 2.51953125 3.64149305555555  2.56076388888889 3.73914930555555  2.64322916666667 3.82161458333333  L 3.82161458333333 5  L 2.64322916666667 6.17838541666667  C 2.56076388888889 6.26085069444444  2.51953125 6.35850694444444  2.51953125 6.47135416666667  C 2.51953125 6.58854166666667  2.56076388888889 6.68836805555556  2.64322916666667 6.77083333333333  L 3.22916666666667 7.35677083333333  C 3.31163194444444 7.43923611111111  3.41145833333333 7.48046875  3.52864583333333 7.48046875  C 3.64149305555556 7.48046875  3.73914930555556 7.43923611111111  3.82161458333333 7.35677083333333  L 5 6.17838541666667  L 6.17838541666667 7.35677083333333  C 6.26085069444445 7.43923611111111  6.35850694444445 7.48046875  6.47135416666667 7.48046875  C 6.58854166666667 7.48046875  6.68836805555556 7.43923611111111  6.77083333333333 7.35677083333333  L 7.35677083333333 6.77083333333333  Z M 9.32942708333333 2.490234375  C 9.77647569444444 3.25629340277778  10 4.09288194444444  10 5  C 10 5.90711805555556  9.77647569444444 6.74370659722222  9.32942708333333 7.509765625  C 8.88237847222222 8.27582465277778  8.27582465277778 8.88237847222222  7.509765625 9.32942708333333  C 6.74370659722222 9.77647569444444  5.90711805555556 10  5 10  C 4.09288194444444 10  3.25629340277778 9.77647569444444  2.490234375 9.32942708333333  C 1.72417534722222 8.88237847222222  1.11762152777778 8.27582465277778  0.670572916666667 7.509765625  C 0.223524305555556 6.74370659722222  0 5.90711805555556  0 5  C 0 4.09288194444444  0.223524305555556 3.25629340277778  0.670572916666667 2.490234375  C 1.11762152777778 1.72417534722222  1.72417534722222 1.11762152777778  2.490234375 0.670572916666666  C 3.25629340277778 0.223524305555555  4.09288194444444 0  5 0  C 5.90711805555556 0  6.74370659722222 0.223524305555555  7.509765625 0.670572916666666  C 8.27582465277778 1.11762152777778  8.88237847222222 1.72417534722222  9.32942708333333 2.490234375  Z " fill-rule="nonzero" fill="#ffffff" stroke="none" transform="matrix(1 0 0 1 167 425 )" />
  </g>
</svg>