<?xml version="1.0" encoding="utf-8"?>
<svg version="1.1" xmlns:xlink="http://www.w3.org/1999/xlink" width="17px" height="20px" xmlns="http://www.w3.org/2000/svg">
  <g transform="matrix(1 0 0 1 -792 -137 )">
    <path d="M 12.7942708333333 0.758928571428572  L 16.2473958333333 4.24107142857143  C 16.4539930555556 4.44940476190476  16.6310763888889 4.73214285714286  16.7786458333333 5.08928571428571  C 16.9262152777778 5.44642857142857  17 5.77380952380952  17 6.07142857142857  L 17 18.9285714285714  C 17 19.2261904761905  16.8967013888889 19.4791666666667  16.6901041666667 19.6875  C 16.4835069444444 19.8958333333333  16.2326388888889 20  15.9375 20  L 1.0625 20  C 0.767361111111111 20  0.516493055555556 19.8958333333333  0.309895833333333 19.6875  C 0.103298611111111 19.4791666666667  0 19.2261904761905  0 18.9285714285714  L 0 1.07142857142857  C 0 0.773809523809523  0.103298611111111 0.520833333333333  0.309895833333333 0.3125  C 0.516493055555556 0.104166666666667  0.767361111111111 0  1.0625 0  L 10.9791666666667 0  C 11.2743055555556 0  11.5989583333333 0.0744047619047628  11.953125 0.223214285714286  C 12.3072916666667 0.372023809523809  12.5876736111111 0.550595238095237  12.7942708333333 0.758928571428572  Z M 11.787109375 1.76339285714286  C 11.6985677083333 1.67410714285714  11.5473090277778 1.5922619047619  11.3333333333333 1.51785714285714  L 11.3333333333333 5.71428571428571  L 15.4947916666667 5.71428571428571  C 15.4210069444444 5.4985119047619  15.33984375 5.34598214285714  15.2513020833333 5.25669642857143  L 11.787109375 1.76339285714286  Z M 1.41666666666667 18.5714285714286  L 15.5833333333333 18.5714285714286  L 15.5833333333333 7.14285714285714  L 10.9791666666667 7.14285714285714  C 10.6840277777778 7.14285714285714  10.4331597222222 7.03869047619047  10.2265625 6.83035714285714  C 10.0199652777778 6.62202380952381  9.91666666666667 6.36904761904762  9.91666666666667 6.07142857142857  L 9.91666666666667 1.42857142857143  L 1.41666666666667 1.42857142857143  L 1.41666666666667 18.5714285714286  Z " fill-rule="nonzero" fill="#449fbd" stroke="none" transform="matrix(1 0 0 1 792 137 )" />
  </g>
</svg>