<?xml version="1.0" encoding="utf-8"?>
<svg version="1.1" xmlns:xlink="http://www.w3.org/1999/xlink" width="12px" height="6px" xmlns="http://www.w3.org/2000/svg">
  <g transform="matrix(1 0 0 1 -276 -136 )">
    <path d="M 11.77734375 4.86458333333333  C 11.92578125 4.99652777777778  12 5.15277777777778  12 5.33333333333333  C 12 5.51388888888889  11.92578125 5.67013888888889  11.77734375 5.80208333333333  C 11.62890625 5.93402777777778  11.453125 6  11.25 6  L 0.75 6  C 0.546875 6  0.37109375 5.93402777777778  0.22265625 5.80208333333333  C 0.07421875 5.67013888888889  0 5.51388888888889  0 5.33333333333333  C 0 5.15277777777778  0.07421875 4.99652777777778  0.22265625 4.86458333333333  L 5.47265625 0.197916666666667  C 5.62109375 0.0659722222222214  5.796875 0  6 0  C 6.203125 0  6.37890625 0.0659722222222214  6.52734375 0.197916666666667  L 11.77734375 4.86458333333333  Z " fill-rule="nonzero" fill="#000000" stroke="none" transform="matrix(1 0 0 1 276 136 )" />
  </g>
</svg>