<?xml version="1.0" encoding="utf-8"?>
<svg version="1.1" xmlns:xlink="http://www.w3.org/1999/xlink" width="20px" height="18px" xmlns="http://www.w3.org/2000/svg">
  <g transform="matrix(1 0 0 1 -731 -138 )">
    <path d="M 8.55208333333333 10.8449744463373  C 9.07291666666667 10.3339011925043  9.33333333333333 9.71720613287905  9.33333333333333 8.99488926746167  C 9.33333333333333 8.27257240204429  9.07291666666667 7.65587734241908  8.55208333333333 7.14480408858603  C 8.03125 6.63373083475298  7.40277777777778 6.37819420783646  6.66666666666667 6.37819420783646  C 5.93055555555556 6.37819420783646  5.30208333333333 6.63373083475298  4.78125 7.14480408858603  C 4.26041666666667 7.65587734241908  4 8.27257240204429  4 8.99488926746167  C 4 9.71720613287905  4.26041666666667 10.3339011925043  4.78125 10.8449744463373  C 5.30208333333333 11.3560477001704  5.93055555555556 11.6115843270869  6.66666666666667 11.6115843270869  C 7.40277777777778 11.6115843270869  8.03125 11.3560477001704  8.55208333333333 10.8449744463373  Z M 16.9427083333333 15.1533219761499  C 17.203125 14.8977853492334  17.3333333333333 14.5894378194208  17.3333333333333 14.2282793867121  C 17.3333333333333 13.8739352640545  17.2013888888889 13.5672913117547  16.9375 13.3083475298126  C 16.6736111111111 13.0494037478705  16.3611111111111 12.9199318568995  16 12.9199318568995  C 15.6388888888889 12.9199318568995  15.3263888888889 13.0494037478705  15.0625 13.3083475298126  C 14.7986111111111 13.5672913117547  14.6666666666667 13.8739352640545  14.6666666666667 14.2282793867121  C 14.6666666666667 14.5894378194208  14.796875 14.8977853492334  15.0572916666667 15.1533219761499  C 15.3177083333333 15.4088586030664  15.6319444444444 15.5366269165247  16 15.5366269165247  C 16.3680555555556 15.5366269165247  16.6822916666667 15.4088586030664  16.9427083333333 15.1533219761499  Z M 16.9427083333333 4.68654173764906  C 17.203125 4.43100511073254  17.3333333333333 4.12265758091993  17.3333333333333 3.76149914821124  C 17.3333333333333 3.40715502555366  17.2013888888889 3.10051107325383  16.9375 2.84156729131175  C 16.6736111111111 2.58262350936968  16.3611111111111 2.45315161839864  16 2.45315161839864  C 15.6388888888889 2.45315161839864  15.3263888888889 2.58262350936968  15.0625 2.84156729131175  C 14.7986111111111 3.10051107325383  14.6666666666667 3.40715502555366  14.6666666666667 3.76149914821124  C 14.6666666666667 4.12265758091993  14.796875 4.43100511073254  15.0572916666667 4.68654173764906  C 15.3177083333333 4.94207836456559  15.6319444444444 5.06984667802385  16 5.06984667802385  C 16.3680555555556 5.06984667802385  16.6822916666667 4.94207836456559  16.9427083333333 4.68654173764906  Z M 13.2604166666667 7.86541737649063  C 13.3090277777778 7.92333901192504  13.3333333333333 7.98977853492334  13.3333333333333 8.06473594548552  L 13.3333333333333 9.9557069846678  C 13.3333333333333 10.0238500851789  13.3090277777778 10.0902896081772  13.2604166666667 10.1550255536627  C 13.2118055555556 10.2197614991482  13.15625 10.2555366269165  13.09375 10.2623509369676  L 11.4791666666667 10.5076660988075  C 11.4027777777778 10.7461669505963  11.2916666666667 11.0051107325383  11.1458333333333 11.2844974446337  C 11.3819444444444 11.6115843270869  11.6944444444444 12.0034071550256  12.0833333333333 12.4599659284497  C 12.1319444444444 12.5349233390119  12.15625 12.603066439523  12.15625 12.664395229983  C 12.15625 12.7461669505963  12.1319444444444 12.8109028960818  12.0833333333333 12.8586030664395  C 11.9236111111111 13.0630323679727  11.6371527777778 13.3679727427598  11.2239583333333 13.7734241908007  C 10.8107638888889 14.1788756388416  10.5381944444444 14.381601362862  10.40625 14.381601362862  C 10.3298611111111 14.381601362862  10.2569444444444 14.3577512776831  10.1875 14.3100511073254  L 8.98958333333333 13.3901192504259  C 8.73263888888889 13.5195911413969  8.46527777777778 13.6252129471891  8.1875 13.7069846678024  C 8.11111111111111 14.442930153322  8.03125 14.9710391822828  7.94791666666667 15.2913117546848  C 7.89930555555556 15.4548551959114  7.79513888888889 15.5366269165247  7.63541666666667 15.5366269165247  L 5.69791666666667 15.5366269165247  C 5.62152777777778 15.5366269165247  5.55208333333333 15.511073253833  5.48958333333333 15.4599659284497  C 5.42708333333333 15.4088586030664  5.39236111111111 15.3492333901193  5.38541666666667 15.2810902896082  L 5.14583333333333 13.717206132879  C 4.90972222222222 13.649063032368  4.64930555555556 13.5434412265758  4.36458333333333 13.4003407155026  L 3.13541666666667 14.3100511073254  C 3.08680555555556 14.3577512776831  3.01736111111111 14.381601362862  2.92708333333333 14.381601362862  C 2.85069444444444 14.381601362862  2.77777777777778 14.3543441226576  2.70833333333333 14.2998296422487  C 1.70833333333333 13.3935264054514  1.20833333333333 12.8483816013629  1.20833333333333 12.664395229983  C 1.20833333333333 12.603066439523  1.23263888888889 12.5383304940375  1.28125 12.4701873935264  C 1.35069444444444 12.3747870528109  1.49305555555556 12.1942078364566  1.70833333333333 11.9284497444634  C 1.92361111111111 11.6626916524702  2.08680555555556 11.4548551959114  2.19791666666667 11.3049403747871  C 2.03819444444444 11.0051107325383  1.91666666666667 10.7257240204429  1.83333333333333 10.4667802385009  L 0.25 10.221465076661  C 0.180555555555556 10.2146507666099  0.121527777777778 10.1822827938671  0.0729166666666667 10.1243611584327  C 0.0243055555555556 10.0664395229983  0 10  0 9.92504258943782  L 0 8.03407155025554  C 0 7.96592844974446  0.0243055555555556 7.89948892674617  0.0729166666666667 7.83475298126065  C 0.121527777777778 7.77001703577513  0.177083333333333 7.73424190800681  0.239583333333333 7.72742759795571  L 1.85416666666667 7.48211243611584  C 1.93055555555556 7.24361158432709  2.04166666666667 6.98466780238501  2.1875 6.70528109028961  C 1.95138888888889 6.37819420783646  1.63888888888889 5.98637137989778  1.25 5.52981260647359  C 1.20138888888889 5.45485519591141  1.17708333333333 5.38671209540034  1.17708333333333 5.32538330494037  C 1.17708333333333 5.24361158432709  1.20138888888889 5.17546848381601  1.25 5.12095400340715  C 1.40277777777778 4.91652470187393  1.6875 4.61328790459966  2.10416666666667 4.21124361158433  C 2.52083333333333 3.80919931856899  2.79513888888889 3.60817717206133  2.92708333333333 3.60817717206133  C 3.00347222222222 3.60817717206133  3.07638888888889 3.6320272572402  3.14583333333333 3.67972742759796  L 4.34375 4.59965928449744  C 4.57986111111111 4.47700170357751  4.84722222222222 4.3679727427598  5.14583333333333 4.27257240204429  C 5.22222222222222 3.5366269165247  5.30208333333333 3.01192504258944  5.38541666666667 2.6984667802385  C 5.43402777777778 2.53492333901193  5.53819444444445 2.45315161839864  5.69791666666667 2.45315161839864  L 7.63541666666667 2.45315161839864  C 7.71180555555556 2.45315161839864  7.78125 2.47870528109029  7.84375 2.5298126064736  C 7.90625 2.5809199318569  7.94097222222222 2.64054514480409  7.94791666666667 2.70868824531516  L 8.1875 4.27257240204429  C 8.42361111111111 4.34071550255536  8.68402777777778 4.44633730834753  8.96875 4.58943781942078  L 10.1979166666667 3.67972742759796  C 10.2534722222222 3.6320272572402  10.3229166666667 3.60817717206133  10.40625 3.60817717206133  C 10.4826388888889 3.60817717206133  10.5555555555556 3.63543441226576  10.625 3.68994889267462  C 11.625 4.59625212947189  12.125 5.14139693356048  12.125 5.32538330494037  C 12.125 5.37989778534923  12.1006944444444 5.44463373083475  12.0520833333333 5.51959114139693  C 11.96875 5.62862010221465  11.8229166666667 5.81260647359455  11.6145833333333 6.07155025553663  C 11.40625 6.3304940374787  11.25 6.53492333901193  11.1458333333333 6.68483816013629  C 11.3055555555556 7.01192504258944  11.4236111111111 7.29131175468484  11.5 7.52299829642249  L 13.0833333333333 7.75809199318569  C 13.1527777777778 7.7717206132879  13.2118055555556 7.80749574105622  13.2604166666667 7.86541737649063  Z M 18.4479166666667 13.1959114139693  C 19.4826388888889 13.2981260647359  20 13.4037478705281  20 13.5127768313458  L 20 14.9437819420784  C 20 15.0528109028961  19.4826388888889 15.1584327086882  18.4479166666667 15.2606473594549  C 18.3645833333333 15.4446337308348  18.2604166666667 15.6218057921635  18.1354166666667 15.7921635434412  C 18.4895833333333 16.5621805792164  18.6666666666667 17.0323679727428  18.6666666666667 17.2027257240204  C 18.6666666666667 17.2299829642249  18.6527777777778 17.2538330494037  18.625 17.2742759795571  C 17.7777777777778 17.7580919931857  17.3472222222222 18  17.3333333333333 18  C 17.2777777777778 18  17.1180555555556 17.839863713799  16.8541666666667 17.5195911413969  C 16.5902777777778 17.1993185689949  16.4097222222222 16.9676320272572  16.3125 16.824531516184  C 16.1736111111111 16.8381601362862  16.0694444444444 16.8449744463373  16 16.8449744463373  C 15.9305555555556 16.8449744463373  15.8263888888889 16.8381601362862  15.6875 16.824531516184  C 15.5902777777778 16.9676320272572  15.4097222222222 17.1993185689949  15.1458333333333 17.5195911413969  C 14.8819444444444 17.839863713799  14.7222222222222 18  14.6666666666667 18  C 14.6527777777778 18  14.2222222222222 17.7580919931857  13.375 17.2742759795571  C 13.3472222222222 17.2538330494037  13.3333333333333 17.2299829642249  13.3333333333333 17.2027257240204  C 13.3333333333333 17.0323679727428  13.5104166666667 16.5621805792164  13.8645833333333 15.7921635434412  C 13.7395833333333 15.6218057921635  13.6354166666667 15.4446337308348  13.5520833333333 15.2606473594549  C 12.5173611111111 15.1584327086882  12 15.0528109028961  12 14.9437819420784  L 12 13.5127768313458  C 12 13.4037478705281  12.5173611111111 13.2981260647359  13.5520833333333 13.1959114139693  C 13.6423611111111 12.9982964224872  13.7465277777778 12.8211243611584  13.8645833333333 12.664395229983  C 13.5104166666667 11.8943781942078  13.3333333333333 11.4241908006814  13.3333333333333 11.2538330494037  C 13.3333333333333 11.2265758091993  13.3472222222222 11.2027257240204  13.375 11.1822827938671  C 13.4027777777778 11.1686541737649  13.5243055555556 11.1005110732538  13.7395833333333 10.9778534923339  C 13.9548611111111 10.855195911414  14.1597222222222 10.7393526405451  14.3541666666667 10.6303236797274  C 14.5486111111111 10.5212947189097  14.6527777777778 10.4667802385009  14.6666666666667 10.4667802385009  C 14.7222222222222 10.4667802385009  14.8819444444444 10.6252129471891  15.1458333333333 10.9420783645656  C 15.4097222222222 11.2589437819421  15.5902777777778 11.488926746167  15.6875 11.6320272572402  C 15.8263888888889 11.618398637138  15.9305555555556 11.6115843270869  16 11.6115843270869  C 16.0694444444444 11.6115843270869  16.1736111111111 11.618398637138  16.3125 11.6320272572402  C 16.6666666666667 11.1482112436116  16.9861111111111 10.7666098807496  17.2708333333333 10.4872231686542  L 17.3333333333333 10.4667802385009  C 17.3611111111111 10.4667802385009  17.7916666666667 10.7052810902896  18.625 11.1822827938671  C 18.6527777777778 11.2027257240204  18.6666666666667 11.2265758091993  18.6666666666667 11.2538330494037  C 18.6666666666667 11.4241908006814  18.4895833333333 11.8943781942078  18.1354166666667 12.664395229983  C 18.2534722222222 12.8211243611584  18.3576388888889 12.9982964224872  18.4479166666667 13.1959114139693  Z M 18.4479166666667 2.72913117546848  C 19.4826388888889 2.83134582623509  20 2.93696763202726  20 3.04599659284497  L 20 4.47700170357751  C 20 4.58603066439523  19.4826388888889 4.69165247018739  18.4479166666667 4.793867120954  C 18.3645833333333 4.9778534923339  18.2604166666667 5.15502555366269  18.1354166666667 5.32538330494037  C 18.4895833333333 6.0954003407155  18.6666666666667 6.56558773424191  18.6666666666667 6.73594548551959  C 18.6666666666667 6.76320272572402  18.6527777777778 6.7870528109029  18.625 6.80749574105622  C 17.7777777777778 7.29131175468484  17.3472222222222 7.53321976149915  17.3333333333333 7.53321976149915  C 17.2777777777778 7.53321976149915  17.1180555555556 7.37308347529812  16.8541666666667 7.05281090289608  C 16.5902777777778 6.73253833049404  16.4097222222222 6.50085178875639  16.3125 6.35775127768314  C 16.1736111111111 6.37137989778535  16.0694444444444 6.37819420783646  16 6.37819420783646  C 15.9305555555556 6.37819420783646  15.8263888888889 6.37137989778535  15.6875 6.35775127768314  C 15.5902777777778 6.50085178875639  15.4097222222222 6.73253833049404  15.1458333333333 7.05281090289608  C 14.8819444444444 7.37308347529812  14.7222222222222 7.53321976149915  14.6666666666667 7.53321976149915  C 14.6527777777778 7.53321976149915  14.2222222222222 7.29131175468484  13.375 6.80749574105622  C 13.3472222222222 6.7870528109029  13.3333333333333 6.76320272572402  13.3333333333333 6.73594548551959  C 13.3333333333333 6.56558773424191  13.5104166666667 6.0954003407155  13.8645833333333 5.32538330494037  C 13.7395833333333 5.15502555366269  13.6354166666667 4.9778534923339  13.5520833333333 4.793867120954  C 12.5173611111111 4.69165247018739  12 4.58603066439523  12 4.47700170357751  L 12 3.04599659284497  C 12 2.93696763202726  12.5173611111111 2.83134582623509  13.5520833333333 2.72913117546848  C 13.6423611111111 2.53151618398637  13.7465277777778 2.35434412265758  13.8645833333333 2.19761499148211  C 13.5104166666667 1.42759795570698  13.3333333333333 0.957410562180577  13.3333333333333 0.787052810902897  C 13.3333333333333 0.759795570698466  13.3472222222222 0.735945485519592  13.375 0.71550255536627  C 13.4027777777778 0.701873935264052  13.5243055555556 0.633730834752982  13.7395833333333 0.51107325383305  C 13.9548611111111 0.388415672913118  14.1597222222222 0.272572402044291  14.3541666666667 0.163543441226576  C 14.5486111111111 0.0545144804088573  14.6527777777778 0  14.6666666666667 0  C 14.7222222222222 0  14.8819444444444 0.158432708688244  15.1458333333333 0.475298126064735  C 15.4097222222222 0.792163543441226  15.5902777777778 1.0221465076661  15.6875 1.16524701873935  C 15.8263888888889 1.15161839863714  15.9305555555556 1.14480408858603  16 1.14480408858603  C 16.0694444444444 1.14480408858603  16.1736111111111 1.15161839863714  16.3125 1.16524701873935  C 16.6666666666667 0.68143100511073  16.9861111111111 0.299829642248721  17.2708333333333 0.020442930153322  L 17.3333333333333 0  C 17.3611111111111 0  17.7916666666667 0.238500851788755  18.625 0.71550255536627  C 18.6527777777778 0.735945485519592  18.6666666666667 0.759795570698466  18.6666666666667 0.787052810902897  C 18.6666666666667 0.957410562180577  18.4895833333333 1.42759795570698  18.1354166666667 2.19761499148211  C 18.2534722222222 2.35434412265758  18.3576388888889 2.53151618398637  18.4479166666667 2.72913117546848  Z " fill-rule="nonzero" fill="#449fbd" stroke="none" transform="matrix(1 0 0 1 731 138 )" />
  </g>
</svg>