<?xml version="1.0" encoding="utf-8"?>
<svg version="1.1" xmlns:xlink="http://www.w3.org/1999/xlink" width="20px" height="20px" viewBox="37 321  20 20" xmlns="http://www.w3.org/2000/svg">
  <path d="M 37.5 326  A 4.5 4.5 0 0 1 42 321.5 L 52 321.5  A 4.5 4.5 0 0 1 56.5 326 L 56.5 336  A 4.5 4.5 0 0 1 52 340.5 L 42 340.5  A 4.5 4.5 0 0 1 37.5 336 L 37.5 326  Z " fill-rule="nonzero" fill="#f0f0f0" stroke="none" />
  <path d="M 37.5 326  A 4.5 4.5 0 0 1 42 321.5 L 52 321.5  A 4.5 4.5 0 0 1 56.5 326 L 56.5 336  A 4.5 4.5 0 0 1 52 340.5 L 42 340.5  A 4.5 4.5 0 0 1 37.5 336 L 37.5 326  Z " stroke-width="1" stroke="#aaaaaa" fill="none" />
  <path d="M 41.2857142857143 331  L 45.5714285714286 335.285714285714  L 52.7142857142857 325.285714285714  " stroke-width="4.28571428571429" stroke="#aaaaaa" fill="none" />
</svg>