<?xml version="1.0" encoding="utf-8"?>
<svg version="1.1" xmlns:xlink="http://www.w3.org/1999/xlink" width="20px" height="20px" viewBox="37 233  20 20" xmlns="http://www.w3.org/2000/svg">
  <path d="M 37.5 238  A 4.5 4.5 0 0 1 42 233.5 L 52 233.5  A 4.5 4.5 0 0 1 56.5 238 L 56.5 248  A 4.5 4.5 0 0 1 52 252.5 L 42 252.5  A 4.5 4.5 0 0 1 37.5 248 L 37.5 238  Z " fill-rule="nonzero" fill="#f0f0f0" stroke="none" />
  <path d="M 37.5 238  A 4.5 4.5 0 0 1 42 233.5 L 52 233.5  A 4.5 4.5 0 0 1 56.5 238 L 56.5 248  A 4.5 4.5 0 0 1 52 252.5 L 42 252.5  A 4.5 4.5 0 0 1 37.5 248 L 37.5 238  Z " stroke-width="1" stroke="#aaaaaa" fill="none" />
</svg>