<?xml version="1.0" encoding="utf-8"?>
<svg version="1.1" xmlns:xlink="http://www.w3.org/1999/xlink" width="20px" height="20px" viewBox="437 213  20 20" xmlns="http://www.w3.org/2000/svg">
  <path d="M 437.5 218  A 4.5 4.5 0 0 1 442 213.5 L 452 213.5  A 4.5 4.5 0 0 1 456.5 218 L 456.5 228  A 4.5 4.5 0 0 1 452 232.5 L 442 232.5  A 4.5 4.5 0 0 1 437.5 228 L 437.5 218  Z " fill-rule="nonzero" fill="#f0f0f0" stroke="none" />
  <path d="M 437.5 218  A 4.5 4.5 0 0 1 442 213.5 L 452 213.5  A 4.5 4.5 0 0 1 456.5 218 L 456.5 228  A 4.5 4.5 0 0 1 452 232.5 L 442 232.5  A 4.5 4.5 0 0 1 437.5 228 L 437.5 218  Z " stroke-width="1" stroke="#aaaaaa" fill="none" />
  <path d="M 441.285714285714 223  L 445.571428571429 227.285714285714  L 452.714285714286 217.285714285714  " stroke-width="4.28571428571429" stroke="#aaaaaa" fill="none" />
</svg>