<?xml version="1.0" encoding="utf-8"?>
<svg version="1.1" xmlns:xlink="http://www.w3.org/1999/xlink" width="15px" height="15px" viewBox="208 207  15 15" xmlns="http://www.w3.org/2000/svg">
  <path d="M 208.5 209  A 1.5 1.5 0 0 1 210 207.5 L 221 207.5  A 1.5 1.5 0 0 1 222.5 209 L 222.5 220  A 1.5 1.5 0 0 1 221 221.5 L 210 221.5  A 1.5 1.5 0 0 1 208.5 220 L 208.5 209  Z " fill-rule="nonzero" fill="#f0f0f0" stroke="none" />
  <path d="M 208.5 209  A 1.5 1.5 0 0 1 210 207.5 L 221 207.5  A 1.5 1.5 0 0 1 222.5 209 L 222.5 220  A 1.5 1.5 0 0 1 221 221.5 L 210 221.5  A 1.5 1.5 0 0 1 208.5 220 L 208.5 209  Z " stroke-width="1" stroke="#797979" fill="none" />
  <path d="M 211.214285714286 214.5  L 214.428571428571 217.714285714286  L 219.785714285714 210.214285714286  " stroke-width="3.21428571428571" stroke="#797979" fill="none" />
</svg>