<?xml version="1.0" encoding="utf-8"?>
<svg version="1.1" xmlns:xlink="http://www.w3.org/1999/xlink" width="48px" height="48px" xmlns="http://www.w3.org/2000/svg">
  <g transform="matrix(1 0 0 1 -517 0 )">
    <path d="M 517 0  L 565 0  L 565 48  L 517 48  L 517 0  " fill-rule="nonzero" fill="#cccccc" stroke="none" />
    <path d="M 520 3  L 562 3  L 562 45  L 520 45  L 520 3  " fill-rule="nonzero" fill="#ffffff" stroke="none" />
    <path d="M 545.56 14.4  C 543.544 14.4  541.96 12.816  541.96 10.8  C 541.96 8.784  543.544 7.2  545.56 7.2  C 547.576 7.2  549.16 8.784  549.16 10.8  C 549.16 12.816  547.576 14.4  545.56 14.4  " fill-rule="nonzero" fill="#cccccc" stroke="none" />
    <path d="M 521 44  L 521 22  L 531 12  L 545 20  L 553 18  L 561 20  L 561 44  L 521 44  " fill-rule="nonzero" fill="#169bd5" stroke="none" />
  </g>
</svg>