<?xml version="1.0" encoding="utf-8"?>
<svg version="1.1" xmlns:xlink="http://www.w3.org/1999/xlink" width="15px" height="15px" viewBox="8 18  15 15" xmlns="http://www.w3.org/2000/svg">
  <path d="M 8.5 20  A 1.5 1.5 0 0 1 10 18.5 L 21 18.5  A 1.5 1.5 0 0 1 22.5 20 L 22.5 31  A 1.5 1.5 0 0 1 21 32.5 L 10 32.5  A 1.5 1.5 0 0 1 8.5 31 L 8.5 20  Z " fill-rule="nonzero" fill="#ffffff" stroke="none" />
  <path d="M 8.5 20  A 1.5 1.5 0 0 1 10 18.5 L 21 18.5  A 1.5 1.5 0 0 1 22.5 20 L 22.5 31  A 1.5 1.5 0 0 1 21 32.5 L 10 32.5  A 1.5 1.5 0 0 1 8.5 31 L 8.5 20  Z " stroke-width="1" stroke="#797979" fill="none" />
  <path d="M 11.2142857142857 25.5  L 14.4285714285714 28.7142857142857  L 19.7857142857143 21.2142857142857  " stroke-width="3.21428571428571" stroke="#797979" fill="none" />
</svg>