<?xml version="1.0" encoding="utf-8"?>
<svg version="1.1" xmlns:xlink="http://www.w3.org/1999/xlink" width="20px" height="16px" xmlns="http://www.w3.org/2000/svg">
  <g transform="matrix(1 0 0 1 -786 -133 )">
    <path d="M 15.15625 14.46875  C 15.3084935897436 14.3368055555556  15.3846153846154 14.1805555555556  15.3846153846154 14  C 15.3846153846154 13.8194444444444  15.3084935897436 13.6631944444444  15.15625 13.53125  C 15.0040064102564 13.3993055555556  14.823717948718 13.3333333333333  14.6153846153846 13.3333333333333  C 14.4070512820513 13.3333333333333  14.2267628205128 13.3993055555556  14.0745192307692 13.53125  C 13.9222756410256 13.6631944444444  13.8461538461538 13.8194444444444  13.8461538461538 14  C 13.8461538461538 14.1805555555556  13.9222756410256 14.3368055555556  14.0745192307692 14.46875  C 14.2267628205128 14.6006944444444  14.4070512820513 14.6666666666667  14.6153846153846 14.6666666666667  C 14.823717948718 14.6666666666667  15.0040064102564 14.6006944444444  15.15625 14.46875  Z M 18.2331730769231 14.46875  C 18.3854166666667 14.3368055555556  18.4615384615385 14.1805555555556  18.4615384615385 14  C 18.4615384615385 13.8194444444444  18.3854166666667 13.6631944444444  18.2331730769231 13.53125  C 18.0809294871795 13.3993055555556  17.900641025641 13.3333333333333  17.6923076923077 13.3333333333333  C 17.4839743589744 13.3333333333333  17.3036858974359 13.3993055555556  17.1514423076923 13.53125  C 16.9991987179487 13.6631944444444  16.9230769230769 13.8194444444444  16.9230769230769 14  C 16.9230769230769 14.1805555555556  16.9991987179487 14.3368055555556  17.1514423076923 14.46875  C 17.3036858974359 14.6006944444444  17.4839743589744 14.6666666666667  17.6923076923077 14.6666666666667  C 17.900641025641 14.6666666666667  18.0809294871795 14.6006944444444  18.2331730769231 14.46875  Z M 19.6634615384615 10.9583333333333  C 19.8878205128205 11.1527777777778  20 11.3888888888889  20 11.6666666666667  L 20 15  C 20 15.2777777777778  19.8878205128205 15.5138888888889  19.6634615384615 15.7083333333333  C 19.4391025641026 15.9027777777778  19.1666666666667 16  18.8461538461538 16  L 1.15384615384615 16  C 0.833333333333333 16  0.560897435897436 15.9027777777778  0.336538461538462 15.7083333333333  C 0.112179487179487 15.5138888888889  0 15.2777777777778  0 15  L 0 11.6666666666667  C 0 11.3888888888889  0.112179487179487 11.1527777777778  0.336538461538462 10.9583333333333  C 0.560897435897436 10.7638888888889  0.833333333333333 10.6666666666667  1.15384615384615 10.6666666666667  L 6.74278846153846 10.6666666666667  L 8.36538461538461 12.0833333333333  C 8.83012820512821 12.4722222222222  9.375 12.6666666666667  10 12.6666666666667  C 10.625 12.6666666666667  11.1698717948718 12.4722222222222  11.6346153846154 12.0833333333333  L 13.2692307692308 10.6666666666667  L 18.8461538461538 10.6666666666667  C 19.1666666666667 10.6666666666667  19.4391025641026 10.7638888888889  19.6634615384615 10.9583333333333  Z M 15.3846153846154 5.33333333333333  C 15.7211538461538 5.33333333333333  15.9575320512821 5.46875  16.09375 5.73958333333333  C 16.229967948718 6.02430555555556  16.1738782051282 6.26736111111111  15.9254807692308 6.46875  L 10.5408653846154 11.1354166666667  C 10.3966346153846 11.2673611111111  10.2163461538462 11.3333333333333  10 11.3333333333333  C 9.78365384615385 11.3333333333333  9.60336538461539 11.2673611111111  9.45913461538461 11.1354166666667  L 4.07451923076923 6.46875  C 3.8261217948718 6.26736111111111  3.77003205128205 6.02430555555556  3.90625 5.73958333333333  C 4.04246794871795 5.46875  4.27884615384615 5.33333333333333  4.61538461538462 5.33333333333333  L 7.69230769230769 5.33333333333333  L 7.69230769230769 0.666666666666666  C 7.69230769230769 0.486111111111109  7.76842948717949 0.329861111111109  7.92067307692308 0.197916666666666  C 8.07291666666667 0.0659722222222232  8.25320512820513 0  8.46153846153846 0  L 11.5384615384615 0  C 11.7467948717949 0  11.9270833333333 0.0659722222222232  12.0793269230769 0.197916666666666  C 12.2315705128205 0.329861111111109  12.3076923076923 0.486111111111109  12.3076923076923 0.666666666666666  L 12.3076923076923 5.33333333333333  L 15.3846153846154 5.33333333333333  Z " fill-rule="nonzero" fill="#449fbd" stroke="none" transform="matrix(1 0 0 1 786 133 )" />
  </g>
</svg>