<?xml version="1.0" encoding="utf-8"?>
<svg version="1.1" xmlns:xlink="http://www.w3.org/1999/xlink" width="556px" height="358px" xmlns="http://www.w3.org/2000/svg">
  <g transform="matrix(1 0 0 1 -268 -250 )">
    <path d="M 268 250  L 824 250  L 824 608  L 268 608  L 268 250  " fill-rule="nonzero" fill="#cccccc" stroke="none" />
    <path d="M 293 275  L 799 275  L 799 583  L 293 583  L 293 275  " fill-rule="nonzero" fill="#ffffff" stroke="none" />
    <path d="M 583.97 357.4  C 568.934 357.4  557.12 345.586  557.12 330.55  C 557.12 315.514  568.934 303.7  583.97 303.7  C 599.006 303.7  610.82 315.514  610.82 330.55  C 610.82 345.586  599.006 357.4  583.97 357.4  " fill-rule="nonzero" fill="#cccccc" stroke="none" />
    <path d="M 302 574  L 302 414.5  L 424 342  L 594.8 461.964028776978  L 692.4 385.5  L 790 461.964028776978  L 790 574  L 302 574  " fill-rule="nonzero" fill="#169bd5" stroke="none" />
  </g>
</svg>