<?xml version="1.0" encoding="utf-8"?>
<svg version="1.1" xmlns:xlink="http://www.w3.org/1999/xlink" width="15px" height="15px" viewBox="8 7  15 15" xmlns="http://www.w3.org/2000/svg">
  <path d="M 8.5 9  A 1.5 1.5 0 0 1 10 7.5 L 21 7.5  A 1.5 1.5 0 0 1 22.5 9 L 22.5 20  A 1.5 1.5 0 0 1 21 21.5 L 10 21.5  A 1.5 1.5 0 0 1 8.5 20 L 8.5 9  Z " fill-rule="nonzero" fill="#f0f0f0" stroke="none" />
  <path d="M 8.5 9  A 1.5 1.5 0 0 1 10 7.5 L 21 7.5  A 1.5 1.5 0 0 1 22.5 9 L 22.5 20  A 1.5 1.5 0 0 1 21 21.5 L 10 21.5  A 1.5 1.5 0 0 1 8.5 20 L 8.5 9  Z " stroke-width="1" stroke="#797979" fill="none" />
  <path d="M 11.2142857142857 14.5  L 14.4285714285714 17.7142857142857  L 19.7857142857143 10.2142857142857  " stroke-width="3.21428571428571" stroke="#797979" fill="none" />
</svg>