<?xml version="1.0" encoding="utf-8"?>
<svg version="1.1" xmlns:xlink="http://www.w3.org/1999/xlink" width="20px" height="15px" xmlns="http://www.w3.org/2000/svg">
  <g transform="matrix(1 0 0 1 -688 -178 )">
    <path d="M 15.15625 13.564453125  C 15.3084935897436 13.4407552083333  15.3846153846154 13.2942708333333  15.3846153846154 13.125  C 15.3846153846154 12.9557291666667  15.3084935897436 12.8092447916667  15.15625 12.685546875  C 15.0040064102564 12.5618489583333  14.823717948718 12.5  14.6153846153846 12.5  C 14.4070512820513 12.5  14.2267628205128 12.5618489583333  14.0745192307692 12.685546875  C 13.9222756410256 12.8092447916667  13.8461538461538 12.9557291666667  13.8461538461538 13.125  C 13.8461538461538 13.2942708333333  13.9222756410256 13.4407552083333  14.0745192307692 13.564453125  C 14.2267628205128 13.6881510416667  14.4070512820513 13.75  14.6153846153846 13.75  C 14.823717948718 13.75  15.0040064102564 13.6881510416667  15.15625 13.564453125  Z M 18.2331730769231 13.564453125  C 18.3854166666667 13.4407552083333  18.4615384615385 13.2942708333333  18.4615384615385 13.125  C 18.4615384615385 12.9557291666667  18.3854166666667 12.8092447916667  18.2331730769231 12.685546875  C 18.0809294871795 12.5618489583333  17.900641025641 12.5  17.6923076923077 12.5  C 17.4839743589744 12.5  17.3036858974359 12.5618489583333  17.1514423076923 12.685546875  C 16.9991987179487 12.8092447916667  16.9230769230769 12.9557291666667  16.9230769230769 13.125  C 16.9230769230769 13.2942708333333  16.9991987179487 13.4407552083333  17.1514423076923 13.564453125  C 17.3036858974359 13.6881510416667  17.4839743589744 13.75  17.6923076923077 13.75  C 17.900641025641 13.75  18.0809294871795 13.6881510416667  18.2331730769231 13.564453125  Z M 19.6634615384615 10.2734375  C 19.8878205128205 10.4557291666667  20 10.6770833333333  20 10.9375  L 20 14.0625  C 20 14.3229166666667  19.8878205128205 14.5442708333333  19.6634615384615 14.7265625  C 19.4391025641026 14.9088541666667  19.1666666666667 15  18.8461538461538 15  L 1.15384615384615 15  C 0.833333333333333 15  0.560897435897436 14.9088541666667  0.336538461538462 14.7265625  C 0.112179487179487 14.5442708333333  0 14.3229166666667  0 14.0625  L 0 10.9375  C 0 10.6770833333333  0.112179487179487 10.4557291666667  0.336538461538462 10.2734375  C 0.560897435897436 10.0911458333333  0.833333333333333 10  1.15384615384615 10  L 6.74278846153846 10  L 8.36538461538461 11.328125  C 8.83012820512821 11.6927083333333  9.375 11.875  10 11.875  C 10.625 11.875  11.1698717948718 11.6927083333333  11.6346153846154 11.328125  L 13.2692307692308 10  L 18.8461538461538 10  C 19.1666666666667 10  19.4391025641026 10.0911458333333  19.6634615384615 10.2734375  Z M 15.3846153846154 5  C 15.7211538461538 5  15.9575320512821 5.126953125  16.09375 5.380859375  C 16.229967948718 5.64778645833333  16.1738782051282 5.87565104166667  15.9254807692308 6.064453125  L 10.5408653846154 10.439453125  C 10.3966346153846 10.5631510416667  10.2163461538462 10.625  10 10.625  C 9.78365384615385 10.625  9.60336538461539 10.5631510416667  9.45913461538461 10.439453125  L 4.07451923076923 6.064453125  C 3.8261217948718 5.87565104166667  3.77003205128205 5.64778645833333  3.90625 5.380859375  C 4.04246794871795 5.126953125  4.27884615384615 5  4.61538461538462 5  L 7.69230769230769 5  L 7.69230769230769 0.624999999999999  C 7.69230769230769 0.455729166666665  7.76842948717949 0.309244791666665  7.92067307692308 0.185546874999999  C 8.07291666666667 0.0618489583333343  8.25320512820513 0  8.46153846153846 0  L 11.5384615384615 0  C 11.7467948717949 0  11.9270833333333 0.0618489583333343  12.0793269230769 0.185546874999999  C 12.2315705128205 0.309244791666665  12.3076923076923 0.455729166666665  12.3076923076923 0.624999999999999  L 12.3076923076923 5  L 15.3846153846154 5  Z " fill-rule="nonzero" fill="#449fbd" stroke="none" transform="matrix(1 0 0 1 688 178 )" />
  </g>
</svg>