<?xml version="1.0" encoding="utf-8"?>
<svg version="1.1" xmlns:xlink="http://www.w3.org/1999/xlink" width="15px" height="18px" xmlns="http://www.w3.org/2000/svg">
  <g transform="matrix(1 0 0 1 -521 -309 )">
    <path d="M 9.19921875 11.0390625  C 9.98948317307692 10.0907451923077  10.3846153846154 8.94951923076923  10.3846153846154 7.61538461538462  C 10.3846153846154 6.28125  9.98948317307692 5.14002403846154  9.19921875 4.19170673076923  C 8.40895432692308 3.24338942307692  7.45793269230769 2.76923076923077  6.34615384615385 2.76923076923077  C 5.234375 2.76923076923077  4.28335336538462 3.24338942307692  3.49308894230769 4.19170673076923  C 2.70282451923077 5.14002403846154  2.30769230769231 6.28125  2.30769230769231 7.61538461538462  C 2.30769230769231 8.94951923076923  2.70282451923077 10.0907451923077  3.49308894230769 11.0390625  C 4.28335336538462 11.9873798076923  5.234375 12.4615384615385  6.34615384615385 12.4615384615385  C 7.45793269230769 12.4615384615385  8.40895432692308 11.9873798076923  9.19921875 11.0390625  Z M 14.6664663461538 15.6418269230769  C 14.8888221153846 15.9086538461538  15 16.2331730769231  15 16.6153846153846  C 15 16.9903846153846  14.8858173076923 17.3149038461538  14.6574519230769 17.5889423076923  C 14.4290865384615 17.8629807692308  14.1586538461538 18  13.8461538461538 18  C 13.5216346153846 18  13.2512019230769 17.8629807692308  13.0348557692308 17.5889423076923  L 9.94290865384615 13.8894230769231  C 8.8671875 14.7836538461538  7.66826923076923 15.2307692307692  6.34615384615385 15.2307692307692  C 5.48677884615385 15.2307692307692  4.66496394230769 15.0306490384615  3.88070913461538 14.6304086538462  C 3.09645432692308 14.2301682692308  2.42037259615385 13.6893028846154  1.85246394230769 13.0078125  C 1.28455528846154 12.3263221153846  0.833834134615385 11.5150240384615  0.500300480769231 10.5739182692308  C 0.166766826923077 9.6328125  0 8.64663461538461  0 7.61538461538462  C 0 6.58413461538461  0.166766826923077 5.59795673076923  0.500300480769231 4.65685096153846  C 0.833834134615385 3.71574519230769  1.28455528846154 2.90444711538462  1.85246394230769 2.22295673076923  C 2.42037259615385 1.54146634615385  3.09645432692308 1.00060096153846  3.88070913461538 0.600360576923078  C 4.66496394230769 0.200120192307692  5.48677884615385 0  6.34615384615385 0  C 7.20552884615385 0  8.02734375 0.200120192307692  8.81159855769231 0.600360576923078  C 9.59585336538461 1.00060096153846  10.2719350961538 1.54146634615385  10.83984375 2.22295673076923  C 11.4077524038462 2.90444711538462  11.8584735576923 3.71574519230769  12.1920072115385 4.65685096153846  C 12.5255408653846 5.59795673076923  12.6923076923077 6.58413461538461  12.6923076923077 7.61538461538462  C 12.6923076923077 9.20192307692308  12.3197115384615 10.640625  11.5745192307692 11.9314903846154  L 14.6664663461538 15.6418269230769  Z " fill-rule="nonzero" fill="#333333" stroke="none" transform="matrix(1 0 0 1 521 309 )" />
  </g>
</svg>