<?xml version="1.0" encoding="utf-8"?>
<svg version="1.1" xmlns:xlink="http://www.w3.org/1999/xlink" width="21px" height="20px" xmlns="http://www.w3.org/2000/svg">
  <g transform="matrix(1 0 0 1 -205 -630 )">
    <path d="M 15.9140625 18.1625  C 16.0739182692308 18.0041666666667  16.1538461538462 17.8166666666667  16.1538461538462 17.6  C 16.1538461538462 17.3833333333333  16.0739182692308 17.1958333333333  15.9140625 17.0375  C 15.7542067307692 16.8791666666667  15.5649038461538 16.8  15.3461538461538 16.8  C 15.1274038461538 16.8  14.9381009615385 16.8791666666667  14.7782451923077 17.0375  C 14.6183894230769 17.1958333333333  14.5384615384615 17.3833333333333  14.5384615384615 17.6  C 14.5384615384615 17.8166666666667  14.6183894230769 18.0041666666667  14.7782451923077 18.1625  C 14.9381009615385 18.3208333333333  15.1274038461538 18.4  15.3461538461538 18.4  C 15.5649038461538 18.4  15.7542067307692 18.3208333333333  15.9140625 18.1625  Z M 19.1448317307692 18.1625  C 19.3046875 18.0041666666667  19.3846153846154 17.8166666666667  19.3846153846154 17.6  C 19.3846153846154 17.3833333333333  19.3046875 17.1958333333333  19.1448317307692 17.0375  C 18.9849759615385 16.8791666666667  18.7956730769231 16.8  18.5769230769231 16.8  C 18.3581730769231 16.8  18.1688701923077 16.8791666666667  18.0090144230769 17.0375  C 17.8491586538462 17.1958333333333  17.7692307692308 17.3833333333333  17.7692307692308 17.6  C 17.7692307692308 17.8166666666667  17.8491586538462 18.0041666666667  18.0090144230769 18.1625  C 18.1688701923077 18.3208333333333  18.3581730769231 18.4  18.5769230769231 18.4  C 18.7956730769231 18.4  18.9849759615385 18.3208333333333  19.1448317307692 18.1625  Z M 20.6466346153846 13.95  C 20.8822115384615 14.1833333333333  21 14.4666666666667  21 14.8  L 21 18.8  C 21 19.1333333333333  20.8822115384615 19.4166666666667  20.6466346153846 19.65  C 20.4110576923077 19.8833333333333  20.125 20  19.7884615384615 20  L 1.21153846153846 20  C 0.875 20  0.588942307692308 19.8833333333333  0.353365384615385 19.65  C 0.117788461538462 19.4166666666667  0 19.1333333333333  0 18.8  L 0 14.8  C 0 14.4666666666667  0.117788461538462 14.1833333333333  0.353365384615385 13.95  C 0.588942307692308 13.7166666666667  0.875 13.6  1.21153846153846 13.6  L 6.60036057692308 13.6  C 6.77704326923077 14.0666666666667  7.07361778846154 14.45  7.49008413461538 14.75  C 7.90655048076923 15.05  8.37139423076923 15.2  8.88461538461539 15.2  L 12.1153846153846 15.2  C 12.6286057692308 15.2  13.0934495192308 15.05  13.5099158653846 14.75  C 13.9263822115385 14.45  14.2229567307692 14.0666666666667  14.3996394230769 13.6  L 19.7884615384615 13.6  C 20.125 13.6  20.4110576923077 13.7166666666667  20.6466346153846 13.95  Z M 16.7217548076923 5.8375  C 16.9825721153846 6.0875  17.0414663461539 6.375  16.8984375 6.7  C 16.7554086538462 7.03333333333333  16.5072115384615 7.2  16.1538461538462 7.2  L 12.9230769230769 7.2  L 12.9230769230769 12.8  C 12.9230769230769 13.0166666666667  12.8431490384615 13.2041666666667  12.6832932692308 13.3625  C 12.5234375 13.5208333333333  12.3341346153846 13.6  12.1153846153846 13.6  L 8.88461538461539 13.6  C 8.66586538461539 13.6  8.4765625 13.5208333333333  8.31670673076923 13.3625  C 8.15685096153846 13.2041666666667  8.07692307692308 13.0166666666667  8.07692307692308 12.8  L 8.07692307692308 7.2  L 4.84615384615385 7.2  C 4.49278846153846 7.2  4.24459134615385 7.03333333333333  4.1015625 6.7  C 3.95853365384615 6.375  4.01742788461539 6.0875  4.27824519230769 5.8375  L 9.93209134615385 0.237499999999999  C 10.0835336538462 0.0791666666666657  10.2728365384615 0  10.5 0  C 10.7271634615385 0  10.9164663461538 0.0791666666666657  11.0679086538462 0.237499999999999  L 16.7217548076923 5.8375  Z " fill-rule="nonzero" fill="#7f7f7f" stroke="none" transform="matrix(1 0 0 1 205 630 )" />
  </g>
</svg>