<?xml version="1.0" encoding="utf-8"?>
<svg version="1.1" xmlns:xlink="http://www.w3.org/1999/xlink" width="18px" height="14px" xmlns="http://www.w3.org/2000/svg">
  <g transform="matrix(1 0 0 1 -10 -334 )">
    <path d="M 1.5 0  L 16.5 0  C 16.9125 0  17.265625 0.142795138888888  17.559375 0.428385416666667  C 17.853125 0.713975694444444  18 1.05729166666667  18 1.45833333333333  L 18 12.5416666666667  C 18 12.9427083333333  17.853125 13.2860243055556  17.559375 13.5716145833333  C 17.265625 13.8572048611111  16.9125 14  16.5 14  L 1.5 14  C 1.0875 14  0.734375 13.8572048611111  0.440625 13.5716145833333  C 0.146875 13.2860243055556  0 12.9427083333333  0 12.5416666666667  L 0 1.45833333333333  C 0 1.05729166666667  0.146875 0.713975694444444  0.440625 0.428385416666667  C 0.734375 0.142795138888888  1.0875 0  1.5 0  Z M 16.5 1.16666666666667  L 1.5 1.16666666666667  C 1.41875 1.16666666666667  1.3484375 1.19552951388889  1.2890625 1.25325520833333  C 1.2296875 1.31098090277778  1.2 1.37934027777778  1.2 1.45833333333333  L 1.2 3.5  L 16.8 3.5  L 16.8 1.45833333333333  C 16.8 1.37934027777778  16.7703125 1.31098090277778  16.7109375 1.25325520833333  C 16.6515625 1.19552951388889  16.58125 1.16666666666667  16.5 1.16666666666667  Z M 1.5 12.8333333333333  L 16.5 12.8333333333333  C 16.58125 12.8333333333333  16.6515625 12.8044704861111  16.7109375 12.7467447916667  C 16.7703125 12.6890190972222  16.8 12.6206597222222  16.8 12.5416666666667  L 16.8 7  L 1.2 7  L 1.2 12.5416666666667  C 1.2 12.6206597222222  1.2296875 12.6890190972222  1.2890625 12.7467447916667  C 1.3484375 12.8044704861111  1.41875 12.8333333333333  1.5 12.8333333333333  Z M 4.8 11.6666666666667  L 2.4 11.6666666666667  L 2.4 10.5  L 4.8 10.5  L 4.8 11.6666666666667  Z M 9.6 11.6666666666667  L 6 11.6666666666667  L 6 10.5  L 9.6 10.5  L 9.6 11.6666666666667  Z " fill-rule="nonzero" fill="#000000" stroke="none" transform="matrix(1 0 0 1 10 334 )" />
  </g>
</svg>