<?xml version="1.0" encoding="utf-8"?>
<svg version="1.1" xmlns:xlink="http://www.w3.org/1999/xlink" width="20px" height="18px" xmlns="http://www.w3.org/2000/svg">
  <g transform="matrix(1 0 0 1 -306 -241 )">
    <path d="M 3.25 0  L 16.75 0  C 18.5449254369501 0  20 1.45507456304992  20 3.25  L 20 14.75  C 20 16.5449254369501  18.5449254369501 18  16.75 18  L 3.25 18  C 1.45507456304992 18  0 16.5449254369501  0 14.75  L 0 3.25  C 0 1.45507456304992  1.45507456304992 0  3.25 0  Z M 15.248 3.5  L 4.748 3.5  C 4.3337864376269 3.5  3.998 3.8357864376269  3.998 4.25  C 3.998 4.66421356237309  4.3337864376269 5  4.748 5  L 15.248 5  C 15.6622135623731 5  15.998 4.66421356237309  15.998 4.25  C 15.998 3.8357864376269  15.6622135623731 3.5  15.248 3.5  Z " fill-rule="nonzero" fill="#000000" stroke="none" transform="matrix(1 0 0 1 306 241 )" />
  </g>
</svg>