<?xml version="1.0" encoding="utf-8"?>
<svg version="1.1" xmlns:xlink="http://www.w3.org/1999/xlink" width="18px" height="14px" xmlns="http://www.w3.org/2000/svg">
  <g transform="matrix(1 0 0 1 -10 -298 )">
    <path d="M 5.44110576923077 12.6377840909091  C 5.50600961538461 12.578125  5.53846153846154 12.5018939393939  5.53846153846154 12.4090909090909  L 5.53846153846154 10.5  C 5.53846153846154 10.407196969697  5.50600961538461 10.3309659090909  5.44110576923077 10.2713068181818  C 5.37620192307692 10.2116477272727  5.29326923076923 10.1818181818182  5.19230769230769 10.1818181818182  L 1.73076923076923 10.1818181818182  C 1.62980769230769 10.1818181818182  1.546875 10.2116477272727  1.48197115384615 10.2713068181818  C 1.41706730769231 10.3309659090909  1.38461538461538 10.407196969697  1.38461538461538 10.5  L 1.38461538461538 12.4090909090909  C 1.38461538461538 12.5018939393939  1.41706730769231 12.578125  1.48197115384615 12.6377840909091  C 1.546875 12.6974431818182  1.62980769230769 12.7272727272727  1.73076923076923 12.7272727272727  L 5.19230769230769 12.7272727272727  C 5.29326923076923 12.7272727272727  5.37620192307692 12.6974431818182  5.44110576923077 12.6377840909091  Z M 5.44110576923077 8.81960227272727  C 5.50600961538461 8.75994318181818  5.53846153846154 8.68371212121212  5.53846153846154 8.59090909090909  L 5.53846153846154 6.68181818181818  C 5.53846153846154 6.58901515151515  5.50600961538461 6.51278409090909  5.44110576923077 6.453125  C 5.37620192307692 6.39346590909091  5.29326923076923 6.36363636363636  5.19230769230769 6.36363636363636  L 1.73076923076923 6.36363636363636  C 1.62980769230769 6.36363636363636  1.546875 6.39346590909091  1.48197115384615 6.453125  C 1.41706730769231 6.51278409090909  1.38461538461538 6.58901515151515  1.38461538461538 6.68181818181818  L 1.38461538461538 8.59090909090909  C 1.38461538461538 8.68371212121212  1.41706730769231 8.75994318181818  1.48197115384615 8.81960227272727  C 1.546875 8.87926136363636  1.62980769230769 8.90909090909091  1.73076923076923 8.90909090909091  L 5.19230769230769 8.90909090909091  C 5.29326923076923 8.90909090909091  5.37620192307692 8.87926136363636  5.44110576923077 8.81960227272727  Z M 10.9795673076923 12.6377840909091  C 11.0444711538462 12.578125  11.0769230769231 12.5018939393939  11.0769230769231 12.4090909090909  L 11.0769230769231 10.5  C 11.0769230769231 10.407196969697  11.0444711538462 10.3309659090909  10.9795673076923 10.2713068181818  C 10.9146634615385 10.2116477272727  10.8317307692308 10.1818181818182  10.7307692307692 10.1818181818182  L 7.26923076923077 10.1818181818182  C 7.16826923076923 10.1818181818182  7.08533653846154 10.2116477272727  7.02043269230769 10.2713068181818  C 6.95552884615385 10.3309659090909  6.92307692307692 10.407196969697  6.92307692307692 10.5  L 6.92307692307692 12.4090909090909  C 6.92307692307692 12.5018939393939  6.95552884615385 12.578125  7.02043269230769 12.6377840909091  C 7.08533653846154 12.6974431818182  7.16826923076923 12.7272727272727  7.26923076923077 12.7272727272727  L 10.7307692307692 12.7272727272727  C 10.8317307692308 12.7272727272727  10.9146634615385 12.6974431818182  10.9795673076923 12.6377840909091  Z M 5.44110576923077 5.00142045454546  C 5.50600961538461 4.94176136363636  5.53846153846154 4.8655303030303  5.53846153846154 4.77272727272727  L 5.53846153846154 2.86363636363636  C 5.53846153846154 2.77083333333333  5.50600961538461 2.69460227272727  5.44110576923077 2.63494318181818  C 5.37620192307692 2.57528409090909  5.29326923076923 2.54545454545454  5.19230769230769 2.54545454545454  L 1.73076923076923 2.54545454545454  C 1.62980769230769 2.54545454545454  1.546875 2.57528409090909  1.48197115384615 2.63494318181818  C 1.41706730769231 2.69460227272727  1.38461538461538 2.77083333333333  1.38461538461538 2.86363636363636  L 1.38461538461538 4.77272727272727  C 1.38461538461538 4.8655303030303  1.41706730769231 4.94176136363636  1.48197115384615 5.00142045454546  C 1.546875 5.06107954545454  1.62980769230769 5.09090909090909  1.73076923076923 5.09090909090909  L 5.19230769230769 5.09090909090909  C 5.29326923076923 5.09090909090909  5.37620192307692 5.06107954545454  5.44110576923077 5.00142045454546  Z M 10.9795673076923 8.81960227272727  C 11.0444711538462 8.75994318181818  11.0769230769231 8.68371212121212  11.0769230769231 8.59090909090909  L 11.0769230769231 6.68181818181818  C 11.0769230769231 6.58901515151515  11.0444711538462 6.51278409090909  10.9795673076923 6.453125  C 10.9146634615385 6.39346590909091  10.8317307692308 6.36363636363636  10.7307692307692 6.36363636363636  L 7.26923076923077 6.36363636363636  C 7.16826923076923 6.36363636363636  7.08533653846154 6.39346590909091  7.02043269230769 6.453125  C 6.95552884615385 6.51278409090909  6.92307692307692 6.58901515151515  6.92307692307692 6.68181818181818  L 6.92307692307692 8.59090909090909  C 6.92307692307692 8.68371212121212  6.95552884615385 8.75994318181818  7.02043269230769 8.81960227272727  C 7.08533653846154 8.87926136363636  7.16826923076923 8.90909090909091  7.26923076923077 8.90909090909091  L 10.7307692307692 8.90909090909091  C 10.8317307692308 8.90909090909091  10.9146634615385 8.87926136363636  10.9795673076923 8.81960227272727  Z M 16.5180288461538 12.6377840909091  C 16.5829326923077 12.578125  16.6153846153846 12.5018939393939  16.6153846153846 12.4090909090909  L 16.6153846153846 10.5  C 16.6153846153846 10.407196969697  16.5829326923077 10.3309659090909  16.5180288461538 10.2713068181818  C 16.453125 10.2116477272727  16.3701923076923 10.1818181818182  16.2692307692308 10.1818181818182  L 12.8076923076923 10.1818181818182  C 12.7067307692308 10.1818181818182  12.6237980769231 10.2116477272727  12.5588942307692 10.2713068181818  C 12.4939903846154 10.3309659090909  12.4615384615385 10.407196969697  12.4615384615385 10.5  L 12.4615384615385 12.4090909090909  C 12.4615384615385 12.5018939393939  12.4939903846154 12.578125  12.5588942307692 12.6377840909091  C 12.6237980769231 12.6974431818182  12.7067307692308 12.7272727272727  12.8076923076923 12.7272727272727  L 16.2692307692308 12.7272727272727  C 16.3701923076923 12.7272727272727  16.453125 12.6974431818182  16.5180288461538 12.6377840909091  Z M 10.9795673076923 5.00142045454546  C 11.0444711538462 4.94176136363636  11.0769230769231 4.8655303030303  11.0769230769231 4.77272727272727  L 11.0769230769231 2.86363636363636  C 11.0769230769231 2.77083333333333  11.0444711538462 2.69460227272727  10.9795673076923 2.63494318181818  C 10.9146634615385 2.57528409090909  10.8317307692308 2.54545454545454  10.7307692307692 2.54545454545454  L 7.26923076923077 2.54545454545454  C 7.16826923076923 2.54545454545454  7.08533653846154 2.57528409090909  7.02043269230769 2.63494318181818  C 6.95552884615385 2.69460227272727  6.92307692307692 2.77083333333333  6.92307692307692 2.86363636363636  L 6.92307692307692 4.77272727272727  C 6.92307692307692 4.8655303030303  6.95552884615385 4.94176136363636  7.02043269230769 5.00142045454546  C 7.08533653846154 5.06107954545454  7.16826923076923 5.09090909090909  7.26923076923077 5.09090909090909  L 10.7307692307692 5.09090909090909  C 10.8317307692308 5.09090909090909  10.9146634615385 5.06107954545454  10.9795673076923 5.00142045454546  Z M 16.5180288461538 8.81960227272727  C 16.5829326923077 8.75994318181818  16.6153846153846 8.68371212121212  16.6153846153846 8.59090909090909  L 16.6153846153846 6.68181818181818  C 16.6153846153846 6.58901515151515  16.5829326923077 6.51278409090909  16.5180288461538 6.453125  C 16.453125 6.39346590909091  16.3701923076923 6.36363636363636  16.2692307692308 6.36363636363636  L 12.8076923076923 6.36363636363636  C 12.7067307692308 6.36363636363636  12.6237980769231 6.39346590909091  12.5588942307692 6.453125  C 12.4939903846154 6.51278409090909  12.4615384615385 6.58901515151515  12.4615384615385 6.68181818181818  L 12.4615384615385 8.59090909090909  C 12.4615384615385 8.68371212121212  12.4939903846154 8.75994318181818  12.5588942307692 8.81960227272727  C 12.6237980769231 8.87926136363636  12.7067307692308 8.90909090909091  12.8076923076923 8.90909090909091  L 16.2692307692308 8.90909090909091  C 16.3701923076923 8.90909090909091  16.453125 8.87926136363636  16.5180288461538 8.81960227272727  Z M 16.5180288461538 5.00142045454546  C 16.5829326923077 4.94176136363636  16.6153846153846 4.8655303030303  16.6153846153846 4.77272727272727  L 16.6153846153846 2.86363636363636  C 16.6153846153846 2.77083333333333  16.5829326923077 2.69460227272727  16.5180288461538 2.63494318181818  C 16.453125 2.57528409090909  16.3701923076923 2.54545454545454  16.2692307692308 2.54545454545454  L 12.8076923076923 2.54545454545454  C 12.7067307692308 2.54545454545454  12.6237980769231 2.57528409090909  12.5588942307692 2.63494318181818  C 12.4939903846154 2.69460227272727  12.4615384615385 2.77083333333333  12.4615384615385 2.86363636363636  L 12.4615384615385 4.77272727272727  C 12.4615384615385 4.8655303030303  12.4939903846154 4.94176136363636  12.5588942307692 5.00142045454546  C 12.6237980769231 5.06107954545454  12.7067307692308 5.09090909090909  12.8076923076923 5.09090909090909  L 16.2692307692308 5.09090909090909  C 16.3701923076923 5.09090909090909  16.453125 5.06107954545454  16.5180288461538 5.00142045454546  Z M 17.4915865384615 0.467329545454545  C 17.8305288461538 0.778882575757575  18 1.15340909090909  18 1.59090909090909  L 18 12.4090909090909  C 18 12.8465909090909  17.8305288461538 13.2211174242424  17.4915865384615 13.5326704545455  C 17.1526442307692 13.8442234848485  16.7451923076923 14  16.2692307692308 14  L 1.73076923076923 14  C 1.25480769230769 14  0.847355769230769 13.8442234848485  0.508413461538462 13.5326704545455  C 0.169471153846154 13.2211174242424  0 12.8465909090909  0 12.4090909090909  L 0 1.59090909090909  C 0 1.15340909090909  0.169471153846154 0.778882575757575  0.508413461538462 0.467329545454545  C 0.847355769230769 0.155776515151513  1.25480769230769 0  1.73076923076923 0  L 16.2692307692308 0  C 16.7451923076923 0  17.1526442307692 0.155776515151513  17.4915865384615 0.467329545454545  Z " fill-rule="nonzero" fill="#000000" stroke="none" transform="matrix(1 0 0 1 10 298 )" />
  </g>
</svg>