<?xml version="1.0" encoding="utf-8"?>
<svg version="1.1" xmlns:xlink="http://www.w3.org/1999/xlink" width="28px" height="20px" xmlns="http://www.w3.org/2000/svg">
  <g transform="matrix(1 0 0 1 -14 -15 )">
    <path d="M 0 2  C 0 3.104  0.896 4  2 4  L 26 4  C 27.104 4  28 3.104  28 2  C 28 0.896000000000001  27.104 0  26 0  L 2 0  C 0.896 0  0 0.896  0 2  Z M 28 10  C 28 8.896  27.104 8  26 8  L 2 8  C 0.896 8  0 8.896  0 10  C 0 11.104  0.896 12  2 12  L 26 12  C 27.104 12  28 11.104  28 10  Z M 28 18  C 28 16.896  27.104 16  26 16  L 2 16  C 0.896 16  0 16.896  0 18  C 0 19.104  0.896 20  2 20  L 26 20  C 27.104 20  28 19.104  28 18  Z " fill-rule="nonzero" fill="#efefef" stroke="none" transform="matrix(1 0 0 1 14 15 )" />
  </g>
</svg>