<?xml version="1.0" encoding="utf-8"?>
<svg version="1.1" xmlns:xlink="http://www.w3.org/1999/xlink" width="3px" height="16px" xmlns="http://www.w3.org/2000/svg">
  <g transform="matrix(1 0 0 1 -9 -7 )">
    <path d="M 2.78125 11.9545454545455  C 2.92708333333333 12.1666666666667  3 12.4242424242424  3 12.7272727272727  L 3 14.9090909090909  C 3 15.2121212121212  2.92708333333333 15.469696969697  2.78125 15.6818181818182  C 2.63541666666667 15.8939393939394  2.45833333333333 16  2.25 16  L 0.75 16  C 0.541666666666667 16  0.364583333333333 15.8939393939394  0.21875 15.6818181818182  C 0.0729166666666667 15.469696969697  0 15.2121212121212  0 14.9090909090909  L 0 12.7272727272727  C 0 12.4242424242424  0.0729166666666667 12.1666666666667  0.21875 11.9545454545455  C 0.364583333333333 11.7424242424242  0.541666666666667 11.6363636363636  0.75 11.6363636363636  L 2.25 11.6363636363636  C 2.45833333333333 11.6363636363636  2.63541666666667 11.7424242424242  2.78125 11.9545454545455  Z M 2.78125 6.13636363636364  C 2.92708333333333 6.34848484848485  3 6.60606060606061  3 6.90909090909091  L 3 9.09090909090909  C 3 9.39393939393939  2.92708333333333 9.65151515151515  2.78125 9.86363636363636  C 2.63541666666667 10.0757575757576  2.45833333333333 10.1818181818182  2.25 10.1818181818182  L 0.75 10.1818181818182  C 0.541666666666667 10.1818181818182  0.364583333333333 10.0757575757576  0.21875 9.86363636363636  C 0.0729166666666667 9.65151515151515  0 9.39393939393939  0 9.09090909090909  L 0 6.90909090909091  C 0 6.60606060606061  0.0729166666666667 6.34848484848485  0.21875 6.13636363636364  C 0.364583333333333 5.92424242424242  0.541666666666667 5.81818181818182  0.75 5.81818181818182  L 2.25 5.81818181818182  C 2.45833333333333 5.81818181818182  2.63541666666667 5.92424242424242  2.78125 6.13636363636364  Z M 2.78125 0.318181818181818  C 2.92708333333333 0.530303030303029  3 0.787878787878787  3 1.09090909090909  L 3 3.27272727272727  C 3 3.57575757575757  2.92708333333333 3.83333333333333  2.78125 4.04545454545454  C 2.63541666666667 4.25757575757576  2.45833333333333 4.36363636363636  2.25 4.36363636363636  L 0.75 4.36363636363636  C 0.541666666666667 4.36363636363636  0.364583333333333 4.25757575757576  0.21875 4.04545454545454  C 0.0729166666666667 3.83333333333333  0 3.57575757575757  0 3.27272727272727  L 0 1.09090909090909  C 0 0.787878787878787  0.0729166666666667 0.530303030303029  0.21875 0.318181818181818  C 0.364583333333333 0.106060606060606  0.541666666666667 0  0.75 0  L 2.25 0  C 2.45833333333333 0  2.63541666666667 0.106060606060606  2.78125 0.318181818181818  Z " fill-rule="nonzero" fill="#333333" stroke="none" transform="matrix(1 0 0 1 9 7 )" />
  </g>
</svg>