<?xml version="1.0" encoding="utf-8"?>
<svg version="1.1" xmlns:xlink="http://www.w3.org/1999/xlink" width="25px" height="15px" xmlns="http://www.w3.org/2000/svg">
  <g transform="matrix(1 0 0 1 -340 -36 )">
    <path d="M 1.78571428571429 7.5  C 3.33891369047619 9.41964285714286  5.32459077380952 10.8147321428571  7.74274553571429 11.6852678571429  L 8.83091517857143 10.1116071428571  C 8.02176339285714 9.64285714285714  7.38932291666667 9.05133928571429  6.93359375 8.33705357142857  C 6.47786458333333 7.62276785714286  6.25 6.86755952380952  6.25 6.07142857142857  C 6.25 5.17113095238095  6.53366815476191 4.33407738095238  7.10100446428571 3.56026785714286  C 4.97116815476191 4.43080357142857  3.19940476190476 5.74404761904762  1.78571428571429 7.5  Z M 12.9743303571429 3.59375  C 13.1045386904762 3.48958333333333  13.1696428571429 3.36309523809524  13.1696428571429 3.21428571428571  C 13.1696428571429 3.06547619047619  13.1045386904762 2.93898809523809  12.9743303571429 2.83482142857143  C 12.8441220238095 2.73065476190476  12.6860119047619 2.67857142857143  12.5 2.67857142857143  C 11.3374255952381 2.67857142857143  10.3399367559524 3.01153273809524  9.50753348214286 3.67745535714286  C 8.67513020833333 4.34337797619048  8.25892857142857 5.14136904761905  8.25892857142857 6.07142857142857  C 8.25892857142857 6.22023809523809  8.32403273809524 6.34672619047619  8.45424107142857 6.45089285714286  C 8.58444940476191 6.55505952380952  8.74255952380953 6.60714285714286  8.92857142857143 6.60714285714286  C 9.11458333333333 6.60714285714286  9.27269345238095 6.55505952380952  9.40290178571429 6.45089285714286  C 9.53311011904762 6.34672619047619  9.59821428571429 6.22023809523809  9.59821428571429 6.07142857142857  C 9.59821428571429 5.43154761904762  9.88188244047619 4.88467261904762  10.44921875 4.43080357142857  C 11.0165550595238 3.97693452380952  11.7001488095238 3.75  12.5 3.75  C 12.6860119047619 3.75  12.8441220238095 3.69791666666667  12.9743303571429 3.59375  Z M 18.0106026785714 0.781250000000001  C 18.159412202381 0.855654761904761  18.2338169642857 0.95610119047619  18.2338169642857 1.08258928571429  C 18.2338169642857 1.13467261904762  18.2291666666667 1.16815476190476  18.2198660714286 1.18303571428572  C 17.2340029761905 2.58928571428572  15.7645089285714 4.69866071428572  13.8113839285714 7.51116071428572  C 11.8582589285714 10.3236607142857  10.3934151785714 12.4293154761905  9.41685267857143 13.828125  L 8.73325892857143 14.8214285714286  C 8.64025297619048 14.9404761904762  8.51004464285714 15  8.34263392857143 15  C 8.23102678571429 15  7.60788690476191 14.7395833333333  6.47321428571429 14.21875  C 6.32440476190476 14.1443452380952  6.25 14.0401785714286  6.25 13.90625  C 6.25 13.8169642857143  6.4546130952381 13.4933035714286  6.86383928571429 12.9352678571429  C 5.53385416666667 12.4516369047619  4.30850074404762 11.8080357142857  3.18777901785714 11.0044642857143  C 2.06705729166667 10.2008928571429  1.09747023809524 9.28943452380952  0.279017857142857 8.27008928571428  C 0.0930059523809524 8.03943452380952  0 7.78273809523809  0 7.5  C 0 7.2172619047619  0.0930059523809524 6.96056547619048  0.279017857142857 6.72991071428571  C 1.70200892857143 4.98139880952381  3.46912202380952 3.60119047619047  5.58035714285714 2.58928571428572  C 7.69159226190476 1.57738095238095  9.99813988095238 1.07142857142857  12.5 1.07142857142857  C 13.3277529761905 1.07142857142857  14.164806547619 1.13467261904762  15.0111607142857 1.26116071428571  L 15.7645089285714 0.178571428571428  C 15.8575148809524 0.0595238095238093  15.9877232142857 0  16.1551339285714 0  C 16.2016369047619 0  16.2853422619048 0.0223214285714285  16.40625 0.0669642857142855  C 16.5271577380952 0.111607142857142  16.6713169642857 0.169270833333331  16.8387276785714 0.239955357142858  C 17.0061383928571 0.31063988095238  17.1595982142857 0.379464285714286  17.2991071428571 0.446428571428572  C 17.4386160714286 0.513392857142857  17.5851004464286 0.582217261904759  17.7385602678571 0.652901785714285  C 17.8920200892857 0.723586309523808  17.9827008928571 0.766369047619047  18.0106026785714 0.781250000000001  Z M 18.6383928571429 5.13392857142857  C 18.7127976190476 5.46875  18.75 5.78125  18.75 6.07142857142857  C 18.75 7.10565476190476  18.3826264880952 8.04873511904762  17.6478794642857 8.90066964285714  C 16.9131324404762 9.75260416666667  15.9412202380952 10.3645833333333  14.7321428571429 10.7366071428571  L 18.6383928571429 5.13392857142857  Z M 24.7209821428571 6.72991071428571  C 24.9069940476191 6.9828869047619  25 7.23958333333333  25 7.5  C 25 7.76041666666667  24.9069940476191 8.01711309523809  24.7209821428571 8.27008928571428  C 24.3582589285714 8.74627976190476  23.8513764880952 9.28571428571429  23.2003348214286 9.88839285714286  C 21.8052455357143 11.1681547619048  20.1892671130952 12.1614583333333  18.3523995535714 12.8683035714286  C 16.5155319940476 13.5751488095238  14.5647321428571 13.9285714285714  12.5 13.9285714285714  L 13.5323660714286 12.4553571428571  C 15.5040922619048 12.3214285714286  17.329334077381 11.811755952381  19.0080915178571 10.9263392857143  C 20.6868489583333 10.0409226190476  22.0889136904762 8.89880952380952  23.2142857142857 7.5  C 22.1447172619048 6.16815476190476  20.8333333333333 5.07440476190476  19.2801339285714 4.21875  L 20.1590401785714 2.96875  C 21.0425967261905 3.44494047619047  21.8912760416667 4.0141369047619  22.705078125 4.67633928571428  C 23.5188802083333 5.33854166666667  24.1908482142857 6.02306547619048  24.7209821428571 6.72991071428571  Z " fill-rule="nonzero" fill="#aaaaaa" stroke="none" transform="matrix(1 0 0 1 340 36 )" />
  </g>
</svg>