<?xml version="1.0" encoding="utf-8"?>
<svg version="1.1" xmlns:xlink="http://www.w3.org/1999/xlink" width="11px" height="14px" xmlns="http://www.w3.org/2000/svg">
  <g transform="matrix(1 0 0 1 -4 -182 )">
    <path d="M 3.05555555555556 4.45454545454546  L 3.05555555555556 6.36363636363636  L 7.94444444444444 6.36363636363636  L 7.94444444444444 4.45454545454546  C 7.94444444444444 3.75189393939394  7.70572916666667 3.15198863636364  7.22829861111111 2.65482954545454  C 6.75086805555556 2.15767045454546  6.17476851851852 1.90909090909091  5.5 1.90909090909091  C 4.82523148148148 1.90909090909091  4.24913194444444 2.15767045454546  3.77170138888889 2.65482954545454  C 3.29427083333333 3.15198863636364  3.05555555555556 3.75189393939394  3.05555555555556 4.45454545454546  Z M 10.7326388888889 6.64204545454546  C 10.9108796296296 6.82765151515151  11 7.0530303030303  11 7.31818181818182  L 11 13.0454545454545  C 11 13.3106060606061  10.9108796296296 13.5359848484848  10.7326388888889 13.7215909090909  C 10.5543981481482 13.907196969697  10.337962962963 14  10.0833333333333 14  L 0.916666666666667 14  C 0.662037037037037 14  0.445601851851852 13.907196969697  0.267361111111111 13.7215909090909  C 0.0891203703703704 13.5359848484848  0 13.3106060606061  0 13.0454545454545  L 0 7.31818181818182  C 0 7.0530303030303  0.0891203703703704 6.82765151515151  0.267361111111111 6.64204545454546  C 0.445601851851852 6.45643939393939  0.662037037037037 6.36363636363636  0.916666666666667 6.36363636363636  L 1.22222222222222 6.36363636363636  L 1.22222222222222 4.45454545454546  C 1.22222222222222 3.23484848484848  1.64236111111111 2.1875  2.48263888888889 1.3125  C 3.32291666666667 0.4375  4.3287037037037 0  5.5 0  C 6.6712962962963 0  7.67708333333333 0.4375  8.51736111111111 1.3125  C 9.35763888888889 2.1875  9.77777777777778 3.23484848484848  9.77777777777778 4.45454545454546  L 9.77777777777778 6.36363636363636  L 10.0833333333333 6.36363636363636  C 10.337962962963 6.36363636363636  10.5543981481482 6.45643939393939  10.7326388888889 6.64204545454546  Z " fill-rule="nonzero" fill="#555555" stroke="none" transform="matrix(1 0 0 1 4 182 )" />
  </g>
</svg>