<?xml version="1.0" encoding="utf-8"?>
<svg version="1.1" xmlns:xlink="http://www.w3.org/1999/xlink" width="3px" height="15px" xmlns="http://www.w3.org/2000/svg">
  <g transform="matrix(1 0 0 1 -158 -181 )">
    <path d="M 2.78125 11.2073863636364  C 2.92708333333333 11.40625  3 11.6477272727273  3 11.9318181818182  L 3 13.9772727272727  C 3 14.2613636363636  2.92708333333333 14.5028409090909  2.78125 14.7017045454545  C 2.63541666666667 14.9005681818182  2.45833333333333 15  2.25 15  L 0.75 15  C 0.541666666666667 15  0.364583333333333 14.9005681818182  0.21875 14.7017045454545  C 0.0729166666666667 14.5028409090909  0 14.2613636363636  0 13.9772727272727  L 0 11.9318181818182  C 0 11.6477272727273  0.0729166666666667 11.40625  0.21875 11.2073863636364  C 0.364583333333333 11.0085227272727  0.541666666666667 10.9090909090909  0.75 10.9090909090909  L 2.25 10.9090909090909  C 2.45833333333333 10.9090909090909  2.63541666666667 11.0085227272727  2.78125 11.2073863636364  Z M 2.78125 5.75284090909091  C 2.92708333333333 5.95170454545454  3 6.19318181818182  3 6.47727272727273  L 3 8.52272727272727  C 3 8.80681818181818  2.92708333333333 9.04829545454545  2.78125 9.24715909090909  C 2.63541666666667 9.44602272727273  2.45833333333333 9.54545454545454  2.25 9.54545454545454  L 0.75 9.54545454545454  C 0.541666666666667 9.54545454545454  0.364583333333333 9.44602272727273  0.21875 9.24715909090909  C 0.0729166666666667 9.04829545454545  0 8.80681818181818  0 8.52272727272727  L 0 6.47727272727273  C 0 6.19318181818182  0.0729166666666667 5.95170454545454  0.21875 5.75284090909091  C 0.364583333333333 5.55397727272727  0.541666666666667 5.45454545454546  0.75 5.45454545454546  L 2.25 5.45454545454546  C 2.45833333333333 5.45454545454546  2.63541666666667 5.55397727272727  2.78125 5.75284090909091  Z M 2.78125 0.298295454545455  C 2.92708333333333 0.49715909090909  3 0.738636363636363  3 1.02272727272727  L 3 3.06818181818182  C 3 3.35227272727273  2.92708333333333 3.59375  2.78125 3.79261363636364  C 2.63541666666667 3.99147727272727  2.45833333333333 4.09090909090909  2.25 4.09090909090909  L 0.75 4.09090909090909  C 0.541666666666667 4.09090909090909  0.364583333333333 3.99147727272727  0.21875 3.79261363636364  C 0.0729166666666667 3.59375  0 3.35227272727273  0 3.06818181818182  L 0 1.02272727272727  C 0 0.738636363636363  0.0729166666666667 0.49715909090909  0.21875 0.298295454545455  C 0.364583333333333 0.0994318181818177  0.541666666666667 0  0.75 0  L 2.25 0  C 2.45833333333333 0  2.63541666666667 0.0994318181818177  2.78125 0.298295454545455  Z " fill-rule="nonzero" fill="#555555" stroke="none" transform="matrix(1 0 0 1 158 181 )" />
  </g>
</svg>