<?xml version="1.0" encoding="utf-8"?>
<svg version="1.1" xmlns:xlink="http://www.w3.org/1999/xlink" width="9px" height="14px" xmlns="http://www.w3.org/2000/svg">
  <g transform="matrix(1 0 0 1 -10 -181 )">
    <path d="M 2.5 4.45454545454546  L 2.5 6.36363636363636  L 6.5 6.36363636363636  L 6.5 4.45454545454546  C 6.5 3.75189393939394  6.3046875 3.15198863636364  5.9140625 2.65482954545454  C 5.5234375 2.15767045454546  5.05208333333333 1.90909090909091  4.5 1.90909090909091  C 3.94791666666667 1.90909090909091  3.4765625 2.15767045454546  3.0859375 2.65482954545454  C 2.6953125 3.15198863636364  2.5 3.75189393939394  2.5 4.45454545454546  Z M 8.78125 6.64204545454546  C 8.92708333333333 6.82765151515151  9 7.0530303030303  9 7.31818181818182  L 9 13.0454545454545  C 9 13.3106060606061  8.92708333333333 13.5359848484848  8.78125 13.7215909090909  C 8.63541666666667 13.907196969697  8.45833333333333 14  8.25 14  L 0.75 14  C 0.541666666666667 14  0.364583333333333 13.907196969697  0.21875 13.7215909090909  C 0.0729166666666667 13.5359848484848  0 13.3106060606061  0 13.0454545454545  L 0 7.31818181818182  C 0 7.0530303030303  0.0729166666666667 6.82765151515151  0.21875 6.64204545454546  C 0.364583333333333 6.45643939393939  0.541666666666667 6.36363636363636  0.75 6.36363636363636  L 1 6.36363636363636  L 1 4.45454545454546  C 1 3.23484848484848  1.34375 2.1875  2.03125 1.3125  C 2.71875 0.4375  3.54166666666667 0  4.5 0  C 5.45833333333333 0  6.28125 0.4375  6.96875 1.3125  C 7.65625 2.1875  8 3.23484848484848  8 4.45454545454546  L 8 6.36363636363636  L 8.25 6.36363636363636  C 8.45833333333333 6.36363636363636  8.63541666666667 6.45643939393939  8.78125 6.64204545454546  Z " fill-rule="nonzero" fill="#000000" stroke="none" transform="matrix(1 0 0 1 10 181 )" />
  </g>
</svg>