<?xml version="1.0" encoding="utf-8"?>
<svg version="1.1" xmlns:xlink="http://www.w3.org/1999/xlink" width="30px" height="26px" xmlns="http://www.w3.org/2000/svg">
  <g transform="matrix(1 0 0 1 -10 -12 )">
    <path d="M 12.2066326530612 23.77578125  C 12.1938775510204 23.8502604166667  12.2066326530612 23.9416666666667  12.2448979591837 24.05  C 12.2448979591837 24.1041666666667  12.2512755102041 24.2395833333333  12.2640306122449 24.45625  C 12.2767857142857 24.6729166666667  12.2799744897959 24.85234375  12.2735969387755 24.99453125  C 12.2672193877551 25.13671875  12.2480867346939 25.2958333333333  12.2161989795918 25.471875  C 12.1843112244898 25.6479166666667  12.1205357142857 25.7799479166667  12.0248724489796 25.86796875  C 11.9292091836735 25.9559895833333  11.7984693877551 26  11.6326530612245 26  L 5.51020408163265 26  C 3.99234693877551 26  2.69451530612245 25.4278645833333  1.61670918367347 24.28359375  C 0.53890306122449 23.1393229166667  0 21.7614583333333  0 20.15  L 0 5.85  C 0 4.23854166666666  0.53890306122449 2.86067708333333  1.61670918367347 1.71640625  C 2.69451530612245 0.572135416666663  3.99234693877551 0  5.51020408163265 0  L 11.6326530612245 0  C 11.7984693877551 0  11.9419642857143 0.064322916666663  12.063137755102 0.192968750000001  C 12.1843112244898 0.321614583333332  12.2448979591837 0.473958333333332  12.2448979591837 0.650000000000001  C 12.2448979591837 0.704166666666664  12.2512755102041 0.839583333333332  12.2640306122449 1.05625  C 12.2767857142857 1.27291666666666  12.2799744897959 1.45234375  12.2735969387755 1.59453125  C 12.2672193877551 1.73671875  12.2480867346939 1.89583333333333  12.2161989795918 2.071875  C 12.1843112244898 2.24791666666666  12.1205357142857 2.37994791666666  12.0248724489796 2.46796875  C 11.9292091836735 2.55598958333333  11.7984693877551 2.6  11.6326530612245 2.6  L 5.51020408163265 2.6  C 4.66836734693878 2.6  3.94770408163265 2.91822916666666  3.34821428571429 3.5546875  C 2.74872448979592 4.19114583333333  2.44897959183673 4.95625  3 5.85  L 3 20.15  C 2.44897959183673 21.04375  2.74872448979592 21.8088541666667  3.34821428571429 22.4453125  C 3.94770408163265 23.0817708333333  4.66836734693878 23.4  5.51020408163265 23.4  L 11.0204081632653 23.4  L 11.2308673469388 23.4  L 11.4795918367347 23.4  C 11.4795918367347 23.4  11.5529336734694 23.4067708333333  11.6996173469388 23.4203125  C 11.8463010204082 23.4338541666667  11.9196428571429 23.4541666666667  11.9196428571429 23.48125  C 11.9196428571429 23.5083333333333  11.9706632653061 23.5455729166667  12.0727040816327 23.59296875  C 12.1747448979592 23.6403645833333  12.219387755102 23.7013020833333  12.2066326530612 23.77578125  Z M 29.6364795918367 12.0859375  C 29.8788265306122 12.3432291666667  30 12.6479166666667  30 13  C 30 13.3520833333333  29.8788265306122 13.6567708333333  29.6364795918367 13.9140625  L 19.2283163265306 24.9640625  C 18.9859693877551 25.2213541666667  18.6989795918367 25.35  18.3673469387755 25.35  C 18.0357142857143 25.35  17.7487244897959 25.2213541666667  17.5063775510204 24.9640625  C 17.2640306122449 24.7067708333333  17.1428571428571 24.4020833333333  17.1428571428571 24.05  L 17.1428571428571 18.2  L 8.57142857142857 18.2  C 8.23979591836735 18.2  7.95280612244898 18.0713541666667  7.71045918367347 17.8140625  C 7.46811224489796 17.5567708333333  7.3469387755102 17.2520833333333  7.3469387755102 16.9  L 7.3469387755102 9.1  C 7.3469387755102 8.74791666666666  7.46811224489796 8.44322916666666  7.71045918367347 8.1859375  C 7.95280612244898 7.92864583333333  8.23979591836735 7.8  8.57142857142857 7.8  L 17.1428571428571 7.8  L 17.1428571428571 1.95  C 17.1428571428571 1.59791666666666  17.2640306122449 1.29322916666666  17.5063775510204 1.0359375  C 17.7487244897959 0.778645833333332  18.0357142857143 0.650000000000001  18.3673469387755 0.650000000000001  C 18.6989795918367 0.650000000000001  18.9859693877551 0.778645833333332  19.2283163265306 1.0359375  L 29.6364795918367 12.0859375  Z " fill-rule="nonzero" fill="#ffffff" stroke="none" transform="matrix(1 0 0 1 10 12 )" />
  </g>
</svg>