<?xml version="1.0" encoding="utf-8"?>
<svg version="1.1" xmlns:xlink="http://www.w3.org/1999/xlink" width="25px" height="13px" xmlns="http://www.w3.org/2000/svg">
  <g transform="matrix(1 0 0 1 -1159 -149 )">
    <path d="M 24.749498997996 10.6323024054983  C 24.9164996659987 10.7812142038946  25 10.9524627720504  25 11.1460481099656  C 25 11.3396334478809  24.9164996659987 11.5108820160367  24.749498997996 11.659793814433  L 23.496993987976 12.7766323024055  C 23.3299933199733 12.9255441008018  23.1379425517702 13  22.9208416833667 13  C 22.7037408149633 13  22.5116900467602 12.9255441008018  22.3446893787575 12.7766323024055  L 12.5 3.99828178694158  L 2.65531062124249 12.7766323024055  C 2.48830995323981 12.9255441008018  2.29625918503674 13  2.07915831663327 13  C 1.86205744822979 13  1.67000668002672 12.9255441008018  1.50300601202405 12.7766323024055  L 0.250501002004008 11.659793814433  C 0.0835003340013362 11.5108820160367  0 11.3396334478809  0 11.1460481099656  C 0 10.9524627720504  0.0835003340013362 10.7812142038946  0.250501002004008 10.6323024054983  L 11.9238476953908 0.223367697594502  C 12.0908483633935 0.0744558991981655  12.2828991315965 0  12.5 0  C 12.7171008684035 0  12.9091516366065 0.0744558991981655  13.0761523046092 0.223367697594502  L 24.749498997996 10.6323024054983  Z " fill-rule="nonzero" fill="#000000" stroke="none" transform="matrix(1 0 0 1 1159 149 )" />
  </g>
</svg>