<?xml version="1.0" encoding="utf-8"?>
<svg version="1.1" xmlns:xlink="http://www.w3.org/1999/xlink" width="20px" height="20px" xmlns="http://www.w3.org/2000/svg">
  <g transform="matrix(1 0 0 1 -22 0 )">
    <path d="M 32 0  C 37.6 0  42 4.4  42 10  C 42 15.6  37.6 20  32 20  C 26.4 20  22 15.6  22 10  C 22 4.4  26.4 0  32 0  Z " fill-rule="nonzero" fill="#ffffff" stroke="none" />
    <path d="M 32 0.5  C 37.32 0.5  41.5 4.68  41.5 10  C 41.5 15.32  37.32 19.5  32 19.5  C 26.68 19.5  22.5 15.32  22.5 10  C 22.5 4.68  26.68 0.5  32 0.5  Z " stroke-width="1" stroke="#169bd5" fill="none" />
  </g>
</svg>