<?xml version="1.0" encoding="utf-8"?>
<svg version="1.1" xmlns:xlink="http://www.w3.org/1999/xlink" width="19px" height="12px" xmlns="http://www.w3.org/2000/svg">
  <g transform="matrix(1 0 0 1 -860 -562 )">
    <path d="M 18.809619238477 1.23711340206186  C 18.936539746159 1.37457044673539  19 1.53264604810996  19 1.71134020618557  C 19 1.89003436426117  18.936539746159 2.04810996563574  18.809619238477 2.18556701030928  L 9.93787575150301 11.7938144329897  C 9.81095524382098 11.9312714776632  9.66499665998664 12  9.5 12  C 9.33500334001336 12  9.18904475617903 11.9312714776632  9.06212424849699 11.7938144329897  L 0.190380761523046 2.18556701030928  C 0.0634602538410155 2.04810996563574  0 1.89003436426117  0 1.71134020618557  C 0 1.53264604810996  0.0634602538410155 1.37457044673539  0.190380761523046 1.23711340206186  L 1.14228456913828 0.20618556701031  C 1.26920507682031 0.0687285223367682  1.41516366065464 0  1.58016032064128 0  C 1.74515698062792 0  1.89111556446226 0.0687285223367682  2.01803607214429 0.20618556701031  L 9.5 8.30927835051546  L 16.9819639278557 0.20618556701031  C 17.1088844355377 0.0687285223367682  17.2548430193721 0  17.4198396793587 0  C 17.5848363393454 0  17.7307949231797 0.0687285223367682  17.8577154308617 0.20618556701031  L 18.809619238477 1.23711340206186  Z " fill-rule="nonzero" fill="#8c8c8c" stroke="none" transform="matrix(1 0 0 1 860 562 )" />
  </g>
</svg>