<?xml version="1.0" encoding="utf-8"?>
<svg version="1.1" xmlns:xlink="http://www.w3.org/1999/xlink" width="30px" height="30px" viewBox="615 10  30 30" xmlns="http://www.w3.org/2000/svg">
  <path d="M 615.5 15  A 4.5 4.5 0 0 1 620 10.5 L 640 10.5  A 4.5 4.5 0 0 1 644.5 15 L 644.5 35  A 4.5 4.5 0 0 1 640 39.5 L 620 39.5  A 4.5 4.5 0 0 1 615.5 35 L 615.5 15  Z " fill-rule="nonzero" fill="#f0f0f0" stroke="none" />
  <path d="M 615.5 15  A 4.5 4.5 0 0 1 620 10.5 L 640 10.5  A 4.5 4.5 0 0 1 644.5 15 L 644.5 35  A 4.5 4.5 0 0 1 640 39.5 L 620 39.5  A 4.5 4.5 0 0 1 615.5 35 L 615.5 15  Z " stroke-width="1" stroke="#aaaaaa" fill="none" />
  <path d="M 621.428571428571 25  L 627.857142857143 31.4285714285714  L 638.571428571429 16.4285714285714  " stroke-width="6.42857142857143" stroke="#aaaaaa" fill="none" />
</svg>