<?xml version="1.0" encoding="utf-8"?>
<svg version="1.1" xmlns:xlink="http://www.w3.org/1999/xlink" width="20px" height="20px" viewBox="5 15  20 20" xmlns="http://www.w3.org/2000/svg">
  <path d="M 5.5 20  A 4.5 4.5 0 0 1 10 15.5 L 20 15.5  A 4.5 4.5 0 0 1 24.5 20 L 24.5 30  A 4.5 4.5 0 0 1 20 34.5 L 10 34.5  A 4.5 4.5 0 0 1 5.5 30 L 5.5 20  Z " fill-rule="nonzero" fill="#ffffff" stroke="none" fill-opacity="0" />
  <path d="M 5.5 20  A 4.5 4.5 0 0 1 10 15.5 L 20 15.5  A 4.5 4.5 0 0 1 24.5 20 L 24.5 30  A 4.5 4.5 0 0 1 20 34.5 L 10 34.5  A 4.5 4.5 0 0 1 5.5 30 L 5.5 20  Z " stroke-width="1" stroke="#aaaaaa" fill="none" />
  <path d="M 9.28571428571428 25  L 13.5714285714286 29.2857142857143  L 20.7142857142857 19.2857142857143  " stroke-width="4.28571428571429" stroke="#aaaaaa" fill="none" />
</svg>