<?xml version="1.0" encoding="utf-8"?>
<svg version="1.1" xmlns:xlink="http://www.w3.org/1999/xlink" width="8px" height="15px" xmlns="http://www.w3.org/2000/svg">
  <g transform="matrix(1 0 0 1 -18 -166 )">
    <path d="M 7.73611111111111 6.8408203125  C 7.91203703703704 7.0263671875  8 7.24609375  8 7.5  C 8 7.75390625  7.91203703703704 7.9736328125  7.73611111111111 8.1591796875  L 1.51388888888889 14.7216796875  C 1.33796296296296 14.9072265625  1.12962962962963 15  0.888888888888889 15  C 0.648148148148148 15  0.439814814814815 14.9072265625  0.263888888888889 14.7216796875  C 0.087962962962963 14.5361328125  0 14.31640625  0 14.0625  L 0 0.9375  C 0 0.683593749999998  0.087962962962963 0.463867187499998  0.263888888888889 0.2783203125  C 0.439814814814815 0.0927734374999989  0.648148148148148 0  0.888888888888889 0  C 1.12962962962963 0  1.33796296296296 0.0927734374999989  1.51388888888889 0.2783203125  L 7.73611111111111 6.8408203125  Z " fill-rule="nonzero" fill="#555555" stroke="none" transform="matrix(1 0 0 1 18 166 )" />
  </g>
</svg>