<?xml version="1.0" encoding="utf-8"?>
<svg version="1.1" xmlns:xlink="http://www.w3.org/1999/xlink" width="12px" height="15px" xmlns="http://www.w3.org/2000/svg">
  <g transform="matrix(1 0 0 1 -29 -166 )">
    <path d="M 11.6875 4.28571428571429  L 8 4.28571428571429  L 8 0.334821428571429  C 8.11458333333333 0.412946428571428  8.20833333333333 0.491071428571427  8.28125 0.569196428571429  L 11.46875 3.984375  C 11.5416666666667 4.0625  11.6145833333333 4.16294642857143  11.6875 4.28571428571429  Z M 7 0  L 7 4.55357142857143  C 7 4.77678571428571  7.07291666666667 4.96651785714286  7.21875 5.12276785714286  C 7.36458333333333 5.27901785714286  7.54166666666667 5.35714285714286  7.75 5.35714285714286  L 12 5.35714285714286  L 12 14.1964285714286  C 12 14.4196428571429  11.9270833333333 14.609375  11.78125 14.765625  C 11.6354166666667 14.921875  11.4583333333333 15  11.25 15  L 0.75 15  C 0.541666666666667 15  0.364583333333333 14.921875  0.21875 14.765625  C 0.0729166666666667 14.609375  0 14.4196428571429  0 14.1964285714286  L 0 0.803571428571429  C 0 0.580357142857142  0.0729166666666667 0.390624999999999  0.21875 0.234375  C 0.364583333333333 0.0781250000000006  0.541666666666667 0  0.75 0  L 7 0  Z " fill-rule="nonzero" fill="#555555" stroke="none" transform="matrix(1 0 0 1 29 166 )" />
  </g>
</svg>