<?xml version="1.0" encoding="utf-8"?>
<svg version="1.1" xmlns:xlink="http://www.w3.org/1999/xlink" width="24px" height="28px" xmlns="http://www.w3.org/2000/svg">
  <g transform="matrix(1 0 0 1 -250 -10 )">
    <path d="M 18.0625 1.0625  L 22.9375 5.9375  C 23.2291666666667 6.22916666666666  23.4791666666667 6.625  23.6875 7.125  C 23.8958333333333 7.625  24 8.08333333333333  24 8.5  L 24 26.5  C 24 26.9166666666667  23.8541666666667 27.2708333333333  23.5625 27.5625  C 23.2708333333333 27.8541666666667  22.9166666666667 28  22.5 28  L 1.5 28  C 1.08333333333333 28  0.729166666666667 27.8541666666667  0.4375 27.5625  C 0.145833333333333 27.2708333333333  0 26.9166666666667  0 26.5  L 0 1.5  C 0 1.08333333333333  0.145833333333333 0.729166666666666  0.4375 0.4375  C 0.729166666666667 0.145833333333334  1.08333333333333 0  1.5 0  L 15.5 0  C 15.9166666666667 0  16.375 0.104166666666668  16.875 0.3125  C 17.375 0.520833333333333  17.7708333333333 0.770833333333332  18.0625 1.0625  Z M 16.640625 2.46875  C 16.515625 2.34375  16.3020833333333 2.22916666666666  16 2.125  L 16 8  L 21.875 8  C 21.7708333333333 7.69791666666666  21.65625 7.484375  21.53125 7.359375  L 16.640625 2.46875  Z M 2 26  L 22 26  L 22 10  L 15.5 10  C 15.0833333333333 10  14.7291666666667 9.85416666666666  14.4375 9.5625  C 14.1458333333333 9.27083333333333  14 8.91666666666666  14 8.5  L 14 2  L 2 2  L 2 26  Z M 6 13.5  L 6 12.5  C 6 12.3541666666667  6.046875 12.234375  6.140625 12.140625  C 6.234375 12.046875  6.35416666666667 12  6.5 12  L 17.5 12  C 17.6458333333333 12  17.765625 12.046875  17.859375 12.140625  C 17.953125 12.234375  18 12.3541666666667  18 12.5  L 18 13.5  C 18 13.6458333333333  17.953125 13.765625  17.859375 13.859375  C 17.765625 13.953125  17.6458333333333 14  17.5 14  L 6.5 14  C 6.35416666666667 14  6.234375 13.953125  6.140625 13.859375  C 6.046875 13.765625  6 13.6458333333333  6 13.5  Z M 6.5 16  L 17.5 16  C 17.6458333333333 16  17.765625 16.046875  17.859375 16.140625  C 17.953125 16.234375  18 16.3541666666667  18 16.5  L 18 17.5  C 18 17.6458333333333  17.953125 17.765625  17.859375 17.859375  C 17.765625 17.953125  17.6458333333333 18  17.5 18  L 6.5 18  C 6.35416666666667 18  6.234375 17.953125  6.140625 17.859375  C 6.046875 17.765625  6 17.6458333333333  6 17.5  L 6 16.5  C 6 16.3541666666667  6.046875 16.234375  6.140625 16.140625  C 6.234375 16.046875  6.35416666666667 16  6.5 16  Z M 6.5 20  L 17.5 20  C 17.6458333333333 20  17.765625 20.046875  17.859375 20.140625  C 17.953125 20.234375  18 20.3541666666667  18 20.5  L 18 21.5  C 18 21.6458333333333  17.953125 21.765625  17.859375 21.859375  C 17.765625 21.953125  17.6458333333333 22  17.5 22  L 6.5 22  C 6.35416666666667 22  6.234375 21.953125  6.140625 21.859375  C 6.046875 21.765625  6 21.6458333333333  6 21.5  L 6 20.5  C 6 20.3541666666667  6.046875 20.234375  6.140625 20.140625  C 6.234375 20.046875  6.35416666666667 20  6.5 20  Z " fill-rule="nonzero" fill="#ffffff" stroke="none" transform="matrix(1 0 0 1 250 10 )" />
  </g>
</svg>