<?xml version="1.0" encoding="utf-8"?>
<svg version="1.1" xmlns:xlink="http://www.w3.org/1999/xlink" width="24px" height="25px" xmlns="http://www.w3.org/2000/svg">
  <g transform="matrix(1 0 0 1 -10 -13 )">
    <path d="M 23.4701086956522 10.0208600770218  C 23.8233695652174 10.4220154043646  24 10.9060761660248  24 11.4730423620026  L 24 13.5269576379974  C 24 14.0939238339752  23.8233695652174 14.5779845956354  23.4701086956522 14.9791399229782  C 23.116847826087 15.3802952503209  22.6576086956522 15.5808729139923  22.0923913043478 15.5808729139923  L 10.6141304347826 15.5808729139923  L 15.3913043478261 20.298459563543  C 15.804347826087 20.683568677792  16.0108695652174 21.1649550706033  16.0108695652174 21.7426187419769  C 16.0108695652174 22.3202824133505  15.804347826087 22.8016688061617  15.3913043478261 23.1867779204108  L 14.1684782608696 24.4062901155327  C 13.7663043478261 24.8020967051776  13.2771739130435 25  12.7010869565217 25  C 12.1358695652174 25  11.6413043478261 24.8020967051776  11.2173913043478 24.4062901155327  L 0.603260869565217 13.9441591784339  C 0.201086956521739 13.548352588789  0 13.0669661959777  0 12.5  C 0 11.9437312794181  0.201086956521739 11.4569961489089  0.603260869565217 11.0397946084724  L 11.2173913043478 0.609756097560976  C 11.6304347826087 0.203252032520324  12.125 0  12.7010869565217 0  C 13.2663043478261 0  13.7554347826087 0.203252032520324  14.1684782608696 0.609756097560976  L 15.3913043478261 1.79717586649551  C 15.804347826087 2.20367993153616  16.0108695652174 2.69041506204535  16.0108695652174 3.25738125802311  C 16.0108695652174 3.82434745400085  15.804347826087 4.31108258451005  15.3913043478261 4.71758664955071  L 10.6141304347826 9.4191270860077  L 22.0923913043478 9.4191270860077  C 22.6576086956522 9.4191270860077  23.116847826087 9.61970474967907  23.4701086956522 10.0208600770218  Z " fill-rule="nonzero" fill="#ffffff" stroke="none" transform="matrix(1 0 0 1 10 13 )" />
  </g>
</svg>