<?xml version="1.0" encoding="utf-8"?>
<svg version="1.1" xmlns:xlink="http://www.w3.org/1999/xlink" width="17px" height="15px" xmlns="http://www.w3.org/2000/svg">
  <g transform="matrix(1 0 0 1 -776 -46 )">
    <path d="M 7.92825112107623 11.25  L 8.46188340807175 11.25  L 9.56726457399103 10.0142045454545  L 8.11883408071749 8.39488636363636  L 7.01345291479821 9.63068181818182  L 7.01345291479821 10.2272727272727  L 7.92825112107623 10.2272727272727  L 7.92825112107623 11.25  Z M 12.6451793721973 3.93110795454545  C 12.7531763826607 3.81036931818182  12.7563527653214 3.69318181818182  12.6547085201794 3.57954545454545  C 12.5530642750374 3.46590909090909  12.4482436472347 3.46946022727273  12.3402466367713 3.59019886363636  L 9.00504484304933 7.31889204545454  C 8.89704783258595 7.43963068181818  8.89387144992526 7.55681818181818  8.99551569506726 7.67045454545454  C 9.09715994020927 7.78409090909091  9.20198056801196 7.78053977272727  9.30997757847534 7.65980113636364  L 12.6451793721973 3.93110795454545  Z M 13.2264573991031 9.59872159090909  C 13.3535127055306 9.65553977272727  13.4170403587444 9.75852272727273  13.4170403587444 9.90767045454546  L 13.4170403587444 11.9318181818182  C 13.4170403587444 12.7769886363636  13.1486360239163 13.4996448863636  12.6118273542601 14.0997869318182  C 12.0750186846039 14.6999289772727  11.428624813154 15  10.6726457399103 15  L 2.74439461883408 15  C 1.98841554559043 15  1.34202167414051 14.6999289772727  0.805213004484305 14.0997869318182  C 0.268404334828102 13.4996448863636  0 12.7769886363636  0 11.9318181818182  L 0 3.06818181818182  C 0 2.22301136363636  0.268404334828102 1.50035511363636  0.805213004484305 0.900213068181819  C 1.34202167414051 0.300071022727271  1.98841554559043 0  2.74439461883408 0  L 10.6726457399103 0  C 11.072869955157 0  11.4445067264574 0.0887784090909083  11.7875560538117 0.266335227272727  C 11.8828475336323 0.316051136363635  11.9400224215247 0.397727272727272  11.9590807174888 0.511363636363636  C 11.9781390134529 0.632102272727272  11.9495515695067 0.735085227272727  11.8733183856502 0.8203125  L 11.4063901345291 1.34232954545455  C 11.3174514200299 1.44176136363636  11.2158071748879 1.47017045454545  11.1014573991031 1.42755681818182  C 10.9553437967115 1.38494318181818  10.8124065769806 1.36363636363636  10.6726457399103 1.36363636363636  L 2.74439461883408 1.36363636363636  C 2.32511210762332 1.36363636363636  1.96618086696562 1.53053977272727  1.66760089686099 1.86434659090909  C 1.36902092675635 2.19815340909091  1.21973094170404 2.59943181818182  1.21973094170404 3.06818181818182  L 1.21973094170404 11.9318181818182  C 1.21973094170404 12.4005681818182  1.36902092675635 12.8018465909091  1.66760089686099 13.1356534090909  C 1.96618086696562 13.4694602272727  2.32511210762332 13.6363636363636  2.74439461883408 13.6363636363636  L 10.6726457399103 13.6363636363636  C 11.0919282511211 13.6363636363636  11.4508594917788 13.4694602272727  11.7494394618834 13.1356534090909  C 12.048019431988 12.8018465909091  12.1973094170404 12.4005681818182  12.1973094170404 11.9318181818182  L 12.1973094170404 10.5894886363636  C 12.1973094170404 10.4971590909091  12.2258968609865 10.4190340909091  12.2830717488789 10.3551136363636  L 12.8929372197309 9.67329545454546  C 12.9882286995516 9.56676136363636  13.0994020926756 9.54190340909091  13.2264573991031 9.59872159090909  Z M 6.09865470852018 9.20454545454546  L 12.5022421524664 2.04545454545455  L 15.2466367713004 5.11363636363636  L 8.84304932735426 12.2727272727273  L 6.09865470852018 12.2727272727273  L 6.09865470852018 9.20454545454546  Z M 17 2.72727272727273  C 17 3.01136363636364  16.9110612855007 3.25284090909091  16.7331838565022 3.45170454545455  L 15.8565022421525 4.43181818181818  L 13.1121076233184 1.36363636363636  L 13.9887892376682 0.383522727272727  C 14.1666666666667 0.184659090909089  14.3826606875934 0.0852272727272735  14.6367713004484 0.0852272727272735  C 14.8908819133034 0.0852272727272735  15.1068759342302 0.184659090909089  15.2847533632287 0.383522727272727  L 16.7331838565022 2.00284090909091  C 16.9110612855007 2.20170454545454  17 2.44318181818182  17 2.72727272727273  Z " fill-rule="nonzero" fill="#555555" stroke="none" transform="matrix(1 0 0 1 776 46 )" />
  </g>
</svg>