<?xml version="1.0" encoding="utf-8"?>
<svg version="1.1" xmlns:xlink="http://www.w3.org/1999/xlink" width="20px" height="19px" xmlns="http://www.w3.org/2000/svg">
  <g transform="matrix(1 0 0 1 -561 -17 )">
    <path d="M 15.2500000041066 19  L 4.75000001318442 19  C 4.33587624013269 18.9998730702272  4.00022989033649 18.6641238283963  4.00022989033649 18.2500000359113  C 4.00022989033649 17.8752904425506  4.27678769183219 17.5580753552975  4.6480000132726 17.5070000013587  L 4.75000001318442 17.5000000013651  L 6.49900001167232 17.5000000013651  L 6.49900001167232 15.0020000036384  L 2.2500000153458 15.0020000036384  C 1.06702255126571 15.0021453299674  0.0859682442904302 14.0862033133408  0.00500001728671883 12.9060000055459  L 0 12.752000005686  L 0 2.25000001524342  C -0.000145309037978653 1.06702255121716  0.915796707630258 0.0859682442865173  2.09600001547894 0.00500001728649109  L 2.2500000153458 0  L 17.7490000019461 0  C 18.9319774660262 -0.000145309037972485  19.9130317730015 0.915796707588586  19.9940000000052 2.09600001538357  L 20 2.25000001524342  L 20 12.752000005686  C 19.9991453263299 13.9349774697123  19.0832033096616 14.9160317766429  17.903000001813 14.9970000036429  L 17.7490000019461 15.0020000036384  L 13.4990000056205 15.0020000036384  L 13.4990000056205 17.5000000013651  L 15.2500000041066 17.5000000013651  C 15.2525422012976 17.4999741481266  15.2550845135124 17.4999612212567  15.2576268421591 17.4999612212567  C 15.6718404041741 17.4999612212567  16.0076268415107 17.835747658578  16.0076268415107 18.2499612205741  C 16.0076268415107 18.6276864278238  15.7267229405932 18.9464705038015  15.3520000040184 18.9940000000055  L 15.2500000041066 19  Z M 11.9990000069173 17.5000000013651  L 11.9980000069181 15.0020000036384  L 7.99800001037636 15.0020000036384  L 7.99900001037549 17.5000000013651  L 11.9990000069173 17.5000000013651  Z " fill-rule="nonzero" fill="#aaaaaa" stroke="none" transform="matrix(1 0 0 1 561 17 )" />
  </g>
</svg>