<?xml version="1.0" encoding="utf-8"?>
<svg version="1.1" xmlns:xlink="http://www.w3.org/1999/xlink" width="12px" height="20px" xmlns="http://www.w3.org/2000/svg">
  <g transform="matrix(1 0 0 1 -623 -16 )">
    <path d="M 2.25 0  L 9.75 0  C 10.9926406871193 0  12 1.00735931288071  12 2.25  L 12 17.75  C 12 18.9926406871193  10.9926406871193 20  9.75 20  L 2.25 20  C 1.00735931288071 20  0 18.9926406871193  0 17.75  L 0 2.25  C 0 1.00735931288071  1.00735931288071 0  2.25 0  Z M 7.25 16  L 4.75 16  C 4.3357864376269 16  4 16.3357864376269  4 16.75  C 4 17.1642135623731  4.3357864376269 17.5  4.75 17.5  L 7.25 17.5  C 7.66421356237309 17.5  8 17.1642135623731  8 16.75  C 8 16.3357864376269  7.66421356237309 16  7.25 16  Z " fill-rule="nonzero" fill="#449fbd" stroke="none" transform="matrix(1 0 0 1 623 16 )" />
  </g>
</svg>