<?xml version="1.0" encoding="utf-8"?>
<svg version="1.1" xmlns:xlink="http://www.w3.org/1999/xlink" width="25px" height="25px" xmlns="http://www.w3.org/2000/svg">
  <g transform="matrix(1 0 0 1 -989 -14 )">
    <path d="M 24.365234375 1.123046875  C 24.7884114583333 1.30750868055556  25 1.62760416666667  25 2.08333333333333  L 25 9.375  C 25 9.65711805555556  24.8969184027778 9.90125868055556  24.6907552083333 10.107421875  C 24.4845920138889 10.3135850694444  24.2404513888889 10.4166666666667  23.9583333333333 10.4166666666667  L 16.6666666666667 10.4166666666667  C 16.2109375 10.4166666666667  15.8908420138889 10.1996527777778  15.7063802083333 9.765625  C 15.5219184027778 9.34244791666667  15.5978732638889 8.96809895833333  15.9342447916667 8.642578125  L 18.1803385416667 6.396484375  C 16.5744357638889 4.90993923611111  14.6809895833333 4.16666666666667  12.5 4.16666666666667  C 11.3715277777778 4.16666666666667  10.2945963541667 4.38639322916667  9.26920572916667 4.82584635416667  C 8.24381510416667 5.26529947916667  7.35677083333333 5.859375  6.60807291666667 6.60807291666667  C 5.859375 7.35677083333333  5.26529947916667 8.24381510416667  4.82584635416667 9.26920572916667  C 4.38639322916667 10.2945963541667  4.16666666666667 11.3715277777778  4.16666666666667 12.5  C 4.16666666666667 13.6284722222222  4.38639322916667 14.7054036458333  4.82584635416667 15.7307942708333  C 5.26529947916667 16.7561848958333  5.859375 17.6432291666667  6.60807291666667 18.3919270833333  C 7.35677083333333 19.140625  8.24381510416667 19.7347005208333  9.26920572916667 20.1741536458333  C 10.2945963541667 20.6136067708333  11.3715277777778 20.8333333333333  12.5 20.8333333333333  C 13.7912326388889 20.8333333333333  15.0119357638889 20.5512152777778  16.162109375 19.9869791666667  C 17.3122829861111 19.4227430555556  18.2834201388889 18.6252170138889  19.0755208333333 17.5944010416667  C 19.1514756944444 17.4858940972222  19.2762586805556 17.4207899305556  19.4498697916667 17.3990885416667  C 19.6126302083333 17.3990885416667  19.7482638888889 17.4479166666667  19.8567708333333 17.5455729166667  L 22.0865885416667 19.7916666666667  C 22.1842447916667 19.8784722222222  22.2357855902778 19.9896918402778  22.2412109375 20.1253255208333  C 22.2466362847222 20.2609592013889  22.2059461805556 20.3830295138889  22.119140625 20.4915364583333  C 20.9364149305556 21.923828125  19.5041232638889 23.0333116319444  17.822265625 23.8199869791667  C 16.1404079861111 24.6066623263889  14.3663194444444 25  12.5 25  C 10.8072916666667 25  9.19053819444445 24.6690538194444  7.64973958333333 24.0071614583333  C 6.10894097222222 23.3452690972222  4.77973090277778 22.4555121527778  3.662109375 21.337890625  C 2.54448784722222 20.2202690972222  1.65473090277778 18.8910590277778  0.992838541666667 17.3502604166667  C 0.330946180555556 15.8094618055556  0 14.1927083333333  0 12.5  C 0 10.8072916666667  0.330946180555556 9.19053819444444  0.992838541666667 7.64973958333333  C 1.65473090277778 6.10894097222222  2.54448784722222 4.77973090277778  3.662109375 3.662109375  C 4.77973090277778 2.54448784722222  6.10894097222222 1.65473090277778  7.64973958333333 0.992838541666666  C 9.19053819444445 0.330946180555555  10.8072916666667 0  12.5 0  C 14.0950520833333 0  15.6385633680556 0.301106770833334  17.1305338541667 0.9033203125  C 18.6225043402778 1.50553385416667  19.9490017361111 2.35460069444444  21.1100260416667 3.45052083333333  L 23.2259114583333 1.35091145833333  C 23.5405815972222 1.01453993055556  23.9203559027778 0.938585069444442  24.365234375 1.123046875  Z " fill-rule="nonzero" fill="#eff5fd" stroke="none" transform="matrix(1 0 0 1 989 14 )" />
  </g>
</svg>