<?xml version="1.0" encoding="utf-8"?>
<svg version="1.1" xmlns:xlink="http://www.w3.org/1999/xlink" width="24px" height="21px" xmlns="http://www.w3.org/2000/svg">
  <g transform="matrix(1 0 0 1 -588 -15 )">
    <path d="M 2.7 0  L 21.2988 0  C 22.7899688245431 0  23.9988 1.24438503355853  24 2.77941176470588  L 24 16.9877647058824  C 23.9988 18.5227914370297  22.7899688245431 19.7671764705882  21.2988 19.7671764705882  L 2.7 19.7671764705882  C 1.20883117545686 19.7671764705882  0 18.5227914370297  0 16.9877647058824  L 0 2.77941176470588  C 0 1.24438503355853  1.20883117545686 0  2.7 0  Z M 14.1 14.2058823529412  L 9.9 14.2058823529412  C 9.40294372515228 14.2058823529412  9 14.6206773641274  9 15.1323529411765  C 9 15.6440285182256  9.40294372515228 16.0588235294118  9.9 16.0588235294118  L 14.1 16.0588235294118  C 14.5970562748477 16.0588235294118  15 15.6440285182256  15 15.1323529411765  C 15 14.6206773641274  14.5970562748477 14.2058823529412  14.1 14.2058823529412  Z " fill-rule="nonzero" fill="#449fbd" stroke="none" transform="matrix(1 0 0 1 588 15 )" />
  </g>
</svg>