<?xml version="1.0" encoding="utf-8"?>
<svg version="1.1" xmlns:xlink="http://www.w3.org/1999/xlink" width="23px" height="14px" xmlns="http://www.w3.org/2000/svg">
  <g transform="matrix(1 0 0 1 -3 -9 )">
    <path d="M 17.0767299107143 10.9678819444444  C 18.7923177083333 9.98350694444444  20.2191220238095 8.66087962962963  21.3571428571429 7  C 20.0565476190476 5.08796296296296  18.426525297619 3.65798611111111  16.4670758928571 2.71006944444444  C 16.989025297619 3.55266203703704  17.25 4.46412037037037  17.25 5.44444444444444  C 17.25 6.94328703703704  16.6874069940476 8.22540509259259  15.5622209821429 9.29079861111111  C 14.4370349702381 10.3561921296296  13.0829613095238 10.8888888888889  11.5 10.8888888888889  C 9.91703869047619 10.8888888888889  8.56296502976191 10.3561921296296  7.43777901785714 9.29079861111111  C 6.31259300595238 8.22540509259259  5.75 6.94328703703704  5.75 5.44444444444444  C 5.75 4.46412037037037  6.01097470238095 3.55266203703704  6.53292410714286 2.71006944444444  C 4.57347470238095 3.65798611111111  2.94345238095238 5.08796296296296  1.64285714285714 7  C 2.78087797619048 8.66087962962963  4.20768229166667 9.98350694444444  5.92327008928571 10.9678819444444  C 7.63885788690476 11.9522569444444  9.49776785714286 12.4444444444444  11.5 12.4444444444444  C 13.5022321428571 12.4444444444444  15.3611421130952 11.9522569444444  17.0767299107143 10.9678819444444  Z M 11.9363839285714 2.74652777777778  C 12.0561755952381 2.63310185185185  12.1160714285714 2.49537037037037  12.1160714285714 2.33333333333333  C 12.1160714285714 2.1712962962963  12.0561755952381 2.03356481481481  11.9363839285714 1.92013888888889  C 11.8165922619048 1.80671296296296  11.671130952381 1.75  11.5 1.75  C 10.430431547619 1.75  9.51274181547619 2.11255787037037  8.74693080357143 2.83767361111111  C 7.98111979166667 3.56278935185185  7.59821428571429 4.43171296296296  7.59821428571429 5.44444444444444  C 7.59821428571429 5.60648148148148  7.65811011904762 5.74421296296296  7.77790178571429 5.85763888888889  C 7.89769345238095 5.97106481481481  8.04315476190476 6.02777777777778  8.21428571428572 6.02777777777778  C 8.38541666666667 6.02777777777778  8.53087797619048 5.97106481481481  8.65066964285714 5.85763888888889  C 8.77046130952381 5.74421296296296  8.83035714285714 5.60648148148148  8.83035714285714 5.44444444444444  C 8.83035714285714 4.74768518518519  9.09133184523809 4.15219907407407  9.61328125 3.65798611111111  C 10.1352306547619 3.16377314814815  10.7641369047619 2.91666666666667  11.5 2.91666666666667  C 11.671130952381 2.91666666666667  11.8165922619048 2.8599537037037  11.9363839285714 2.74652777777778  Z M 22.7433035714286 6.16145833333333  C 22.9144345238095 6.44502314814815  23 6.72453703703704  23 7  C 23 7.27546296296296  22.9144345238095 7.55497685185185  22.7433035714286 7.83854166666667  C 21.5453869047619 9.70196759259259  19.9346168154762 11.1947337962963  17.9109933035714 12.3168402777778  C 15.8873697916667 13.4389467592593  13.7503720238095 14  11.5 14  C 9.24962797619048 14  7.11263020833333 13.4369212962963  5.08900669642857 12.3107638888889  C 3.06538318452381 11.1846064814815  1.4546130952381 9.69386574074074  0.256696428571429 7.83854166666667  C 0.0855654761904762 7.55497685185185  0 7.27546296296296  0 7  C 0 6.72453703703704  0.0855654761904762 6.44502314814815  0.256696428571429 6.16145833333333  C 1.4546130952381 4.30613425925926  3.06538318452381 2.81539351851852  5.08900669642857 1.68923611111111  C 7.11263020833333 0.563078703703703  9.24962797619048 0  11.5 0  C 13.7503720238095 0  15.8873697916667 0.563078703703703  17.9109933035714 1.68923611111111  C 19.9346168154762 2.81539351851852  21.5453869047619 4.30613425925926  22.7433035714286 6.16145833333333  Z " fill-rule="nonzero" fill="#797979" stroke="none" transform="matrix(1 0 0 1 3 9 )" />
  </g>
</svg>