<?xml version="1.0" encoding="utf-8"?>
<svg version="1.1" xmlns:xlink="http://www.w3.org/1999/xlink" width="22px" height="25px" xmlns="http://www.w3.org/2000/svg">
  <g transform="matrix(1 0 0 1 -1090 -14 )">
    <path d="M 16.5572916666667 0.948660714285715  L 21.0260416666667 5.30133928571428  C 21.2934027777778 5.56175595238095  21.5225694444444 5.91517857142857  21.7135416666667 6.36160714285714  C 21.9045138888889 6.80803571428572  22 7.2172619047619  22 7.58928571428572  L 22 23.6607142857143  C 22 24.0327380952381  21.8663194444444 24.3489583333333  21.5989583333333 24.609375  C 21.3315972222222 24.8697916666667  21.0069444444444 25  20.625 25  L 1.375 25  C 0.993055555555556 25  0.668402777777778 24.8697916666667  0.401041666666667 24.609375  C 0.133680555555556 24.3489583333333  0 24.0327380952381  0 23.6607142857143  L 0 1.33928571428572  C 0 0.967261904761904  0.133680555555556 0.651041666666666  0.401041666666667 0.390625  C 0.668402777777778 0.130208333333334  0.993055555555556 0  1.375 0  L 14.2083333333333 0  C 14.5902777777778 0  15.0104166666667 0.0930059523809534  15.46875 0.279017857142858  C 15.9270833333333 0.465029761904762  16.2899305555556 0.688244047619047  16.5572916666667 0.948660714285715  Z M 15.25390625 2.20424107142857  C 15.1393229166667 2.09263392857143  14.9435763888889 1.99032738095238  14.6666666666667 1.89732142857143  L 14.6666666666667 7.14285714285714  L 20.0520833333333 7.14285714285714  C 19.9565972222222 6.87313988095238  19.8515625 6.68247767857143  19.7369791666667 6.57087053571428  L 15.25390625 2.20424107142857  Z M 2 23  L 20 23  L 20 8.92857142857143  L 14.2083333333333 8.92857142857143  C 13.8263888888889 8.92857142857143  13.5017361111111 8.79836309523809  13.234375 8.53794642857143  C 12.9670138888889 8.27752976190476  12.8333333333333 7.96130952380952  12.8333333333333 7.58928571428572  L 12.8333333333333 2  L 2 2  L 2 23  Z M 13.75 12.5  L 18.3333333333333 16.9642857142857  L 18.3333333333333 21  L 3.66666666666667 21  L 3.66666666666667 18.75  L 6.41666666666667 16.0714285714286  L 8.25 17.8571428571429  L 13.75 12.5  Z M 8.36458333333333 13.5044642857143  C 7.82986111111111 14.0252976190476  7.18055555555556 14.2857142857143  6.41666666666667 14.2857142857143  C 5.65277777777778 14.2857142857143  5.00347222222222 14.0252976190476  4.46875 13.5044642857143  C 3.93402777777778 12.983630952381  3.66666666666667 12.3511904761905  3.66666666666667 11.6071428571429  C 3.66666666666667 10.8630952380952  3.93402777777778 10.2306547619048  4.46875 9.70982142857143  C 5.00347222222222 9.18898809523809  5.65277777777778 8.92857142857143  6.41666666666667 8.92857142857143  C 7.18055555555556 8.92857142857143  7.82986111111111 9.18898809523809  8.36458333333333 9.70982142857143  C 8.89930555555556 10.2306547619048  9.16666666666667 10.8630952380952  9.16666666666667 11.6071428571429  C 9.16666666666667 12.3511904761905  8.89930555555556 12.983630952381  8.36458333333333 13.5044642857143  Z " fill-rule="nonzero" fill="#ffffff" stroke="none" transform="matrix(1 0 0 1 1090 14 )" />
  </g>
</svg>