<?xml version="1.0" encoding="utf-8"?>
<svg version="1.1" xmlns:xlink="http://www.w3.org/1999/xlink" width="25px" height="19px" xmlns="http://www.w3.org/2000/svg">
  <g transform="matrix(1 0 0 1 -112 -15 )">
    <path d="M 10.9675480769231 10.8764204545455  C 11.348157051282 11.2182765151515  11.5384615384615 11.6231060606061  11.5384615384615 12.0909090909091  L 11.5384615384615 17.2727272727273  C 11.5384615384615 17.7405303030303  11.348157051282 18.1453598484849  10.9675480769231 18.4872159090909  C 10.5869391025641 18.829071969697  10.136217948718 19  9.61538461538462 19  L 1.92307692307692 19  C 1.40224358974359 19  0.951522435897436 18.829071969697  0.570913461538461 18.4872159090909  C 0.190304487179487 18.1453598484849  0 17.7405303030303  0 17.2727272727273  L 0 12.0909090909091  C 0 11.6231060606061  0.190304487179487 11.2182765151515  0.570913461538461 10.8764204545455  C 0.951522435897436 10.5345643939394  1.40224358974359 10.3636363636364  1.92307692307692 10.3636363636364  L 9.61538461538462 10.3636363636364  C 10.136217948718 10.3636363636364  10.5869391025641 10.5345643939394  10.9675480769231 10.8764204545455  Z M 10.9675480769231 0.512784090909091  C 11.348157051282 0.85464015151515  11.5384615384615 1.2594696969697  11.5384615384615 1.72727272727273  L 11.5384615384615 6.90909090909091  C 11.5384615384615 7.37689393939394  11.348157051282 7.78172348484848  10.9675480769231 8.12357954545455  C 10.5869391025641 8.46543560606061  10.136217948718 8.63636363636364  9.61538461538462 8.63636363636364  L 1.92307692307692 8.63636363636364  C 1.40224358974359 8.63636363636364  0.951522435897436 8.46543560606061  0.570913461538461 8.12357954545455  C 0.190304487179487 7.78172348484848  0 7.37689393939394  0 6.90909090909091  L 0 1.72727272727273  C 0 1.2594696969697  0.190304487179487 0.85464015151515  0.570913461538461 0.512784090909091  C 0.951522435897436 0.170928030303029  1.40224358974359 0  1.92307692307692 0  L 9.61538461538462 0  C 10.136217948718 0  10.5869391025641 0.170928030303029  10.9675480769231 0.512784090909091  Z M 24.4290865384615 10.8764204545455  C 24.8096955128205 11.2182765151515  25 11.6231060606061  25 12.0909090909091  L 25 17.2727272727273  C 25 17.7405303030303  24.8096955128205 18.1453598484849  24.4290865384615 18.4872159090909  C 24.0484775641026 18.829071969697  23.5977564102564 19  23.0769230769231 19  L 15.3846153846154 19  C 14.8637820512821 19  14.4130608974359 18.829071969697  14.0324519230769 18.4872159090909  C 13.6518429487179 18.1453598484849  13.4615384615385 17.7405303030303  13.4615384615385 17.2727272727273  L 13.4615384615385 12.0909090909091  C 13.4615384615385 11.6231060606061  13.6518429487179 11.2182765151515  14.0324519230769 10.8764204545455  C 14.4130608974359 10.5345643939394  14.8637820512821 10.3636363636364  15.3846153846154 10.3636363636364  L 23.0769230769231 10.3636363636364  C 23.5977564102564 10.3636363636364  24.0484775641026 10.5345643939394  24.4290865384615 10.8764204545455  Z M 24.4290865384615 0.512784090909091  C 24.8096955128205 0.85464015151515  25 1.2594696969697  25 1.72727272727273  L 25 6.90909090909091  C 25 7.37689393939394  24.8096955128205 7.78172348484848  24.4290865384615 8.12357954545455  C 24.0484775641026 8.46543560606061  23.5977564102564 8.63636363636364  23.0769230769231 8.63636363636364  L 15.3846153846154 8.63636363636364  C 14.8637820512821 8.63636363636364  14.4130608974359 8.46543560606061  14.0324519230769 8.12357954545455  C 13.6518429487179 7.78172348484848  13.4615384615385 7.37689393939394  13.4615384615385 6.90909090909091  L 13.4615384615385 1.72727272727273  C 13.4615384615385 1.2594696969697  13.6518429487179 0.85464015151515  14.0324519230769 0.512784090909091  C 14.4130608974359 0.170928030303029  14.8637820512821 0  15.3846153846154 0  L 23.0769230769231 0  C 23.5977564102564 0  24.0484775641026 0.170928030303029  24.4290865384615 0.512784090909091  Z " fill-rule="nonzero" fill="#7f7f7f" stroke="none" transform="matrix(1 0 0 1 112 15 )" />
  </g>
</svg>